<svg xmlns="http://www.w3.org/2000/svg" xmlns:xlink="http://www.w3.org/1999/xlink" viewBox="0 0 272.94 4.56"><defs><style>.cls-1{fill:url(#linear-gradient);}.cls-2{fill:url(#linear-gradient-2);}.cls-3{fill:url(#linear-gradient-3);}.cls-4{fill:url(#linear-gradient-4);}.cls-5{fill:url(#linear-gradient-5);}.cls-6{fill:url(#linear-gradient-6);}.cls-7{fill:url(#linear-gradient-7);}.cls-8{fill:url(#linear-gradient-8);}</style><linearGradient id="linear-gradient" y1="2.28" x2="4.64" y2="2.28" gradientUnits="userSpaceOnUse"><stop offset="0" stop-color="#93f"/><stop offset="1" stop-color="#0a0a0a"/></linearGradient><linearGradient id="linear-gradient-2" x1="25.78" y1="2.28" x2="30.42" y2="2.28" xlink:href="#linear-gradient"/><linearGradient id="linear-gradient-3" x1="51.56" y1="2.28" x2="56.2" y2="2.28" xlink:href="#linear-gradient"/><linearGradient id="linear-gradient-4" x1="77.34" y1="2.28" x2="81.98" y2="2.28" xlink:href="#linear-gradient"/><linearGradient id="linear-gradient-5" x1="103.12" y1="2.28" x2="107.76" y2="2.28" xlink:href="#linear-gradient"/><linearGradient id="linear-gradient-6" x1="128.9" y1="2.28" x2="133.55" y2="2.28" xlink:href="#linear-gradient"/><linearGradient id="linear-gradient-7" x1="154.68" y1="2.28" x2="159.33" y2="2.28" xlink:href="#linear-gradient"/><linearGradient id="linear-gradient-8" x1="165.99" y1="2.28" x2="272.94" y2="2.28" xlink:href="#linear-gradient"/></defs><g id="Layer_2" data-name="Layer 2"><g id="Logo_Principal" data-name="Logo Principal"><ellipse class="cls-1" cx="2.32" cy="2.28" rx="2.32" ry="2.28"/><ellipse class="cls-2" cx="28.1" cy="2.28" rx="2.32" ry="2.28"/><ellipse class="cls-3" cx="53.88" cy="2.28" rx="2.32" ry="2.28"/><ellipse class="cls-4" cx="79.66" cy="2.28" rx="2.32" ry="2.28"/><ellipse class="cls-5" cx="105.44" cy="2.28" rx="2.32" ry="2.28"/><path class="cls-6" d="M133.55,2.28a2.33,2.33,0,0,1-4.65,0,2.33,2.33,0,0,1,4.65,0Z"/><path class="cls-7" d="M159.33,2.28a2.33,2.33,0,0,1-4.65,0,2.33,2.33,0,0,1,4.65,0Z"/><line class="cls-8" x1="165.99" y1="2.28" x2="272.94" y2="2.28"/></g></g></svg>