<?xml version="1.0" standalone="no"?>
<!DOCTYPE svg PUBLIC "-//W3C//DTD SVG 20010904//EN"
 "http://www.w3.org/TR/2001/REC-SVG-20010904/DTD/svg10.dtd">
<svg version="1.0" xmlns="http://www.w3.org/2000/svg"
 width="477.000000pt" height="477.000000pt" viewBox="0 0 477.000000 477.000000"
 preserveAspectRatio="xMidYMid meet">
<metadata>
Created by potrace 1.14, written by Peter Selinger 2001-2017
</metadata>
<g transform="translate(0.000000,477.000000) scale(0.100000,-0.100000)"
fill="#000000" stroke="none">
<path d="M415 3079 c-164 -10 -283 -69 -355 -174 -41 -60 -70 -168 -48 -181 8
-5 2057 -9 2224 -5 21 1 21 4 22 181 l0 180 -32 0 c-295 5 -1738 3 -1811 -1z"/>
<path d="M2533 3080 c-17 -5 -18 -20 -18 -182 l-1 -178 26 -1 c14 0 436 0 938
-1 l913 0 -3 -77 -3 -76 -922 -1 c-507 -1 -927 -4 -935 -6 -11 -4 -13 -86 -13
-434 l0 -429 188 -1 c184 -1 187 -1 187 20 1 11 2 129 3 261 l2 240 775 1
c557 1 789 4 823 13 107 26 203 97 249 184 21 38 23 57 25 204 2 178 -7 227
-56 293 -58 77 -157 139 -258 160 -52 11 -1882 21 -1920 10z"/>
<path d="M7 2555 c-2 -5 -3 -138 -2 -295 1 -267 3 -288 22 -332 44 -97 113
-159 230 -205 l68 -27 965 -1 965 0 1 183 1 182 -937 0 -937 0 0 78 0 77 926
-1 c509 0 931 2 937 4 8 2 12 54 12 173 l0 169 -27 1 c-14 0 -520 1 -1123 2
-725 1 -1099 -1 -1101 -8z"/>
</g>
</svg>
