<svg xmlns="http://www.w3.org/2000/svg" xmlns:xlink="http://www.w3.org/1999/xlink" viewBox="0 0 665.19 198"><defs><style>.cls-1{opacity:0;}.cls-2{fill:url(#linear-gradient);}.cls-3{fill:url(#linear-gradient-2);}.cls-4{opacity:0.06;}.cls-5{fill:url(#linear-gradient-3);}.cls-6{fill:url(#linear-gradient-4);}.cls-7{opacity:0.13;}.cls-8{fill:url(#linear-gradient-5);}.cls-9{opacity:0.19;}.cls-10{fill:url(#linear-gradient-6);}.cls-11{opacity:0.25;}.cls-12{fill:url(#linear-gradient-7);}.cls-13{opacity:0.31;}.cls-14{fill:url(#linear-gradient-8);}.cls-15{opacity:0.38;}.cls-16{fill:url(#linear-gradient-9);}.cls-17{opacity:0.44;}.cls-18{fill:url(#linear-gradient-10);}.cls-19{opacity:0.5;}.cls-20{fill:url(#linear-gradient-11);}.cls-21{opacity:0.56;}.cls-22{fill:url(#linear-gradient-12);}.cls-23{opacity:0.63;}.cls-24{fill:url(#linear-gradient-13);}.cls-25{opacity:0.69;}.cls-26{fill:url(#linear-gradient-14);}.cls-27{opacity:0.75;}.cls-28{fill:url(#linear-gradient-15);}.cls-29{opacity:0.81;}.cls-30{fill:url(#linear-gradient-16);}.cls-31{opacity:0.88;}.cls-32{fill:url(#linear-gradient-17);}.cls-33{opacity:0.94;}.cls-34{fill:url(#linear-gradient-18);}.cls-35{fill:url(#linear-gradient-19);}</style><linearGradient id="linear-gradient" x1="607.89" y1="182.41" x2="665.19" y2="182.41" gradientUnits="userSpaceOnUse"><stop offset="0" stop-color="#93f"/><stop offset="1" stop-color="#0a0a0a"/></linearGradient><linearGradient id="linear-gradient-2" x1="0" y1="158.44" x2="528.61" y2="158.44" xlink:href="#linear-gradient"/><linearGradient id="linear-gradient-3" x1="644.56" y1="192.27" x2="665.19" y2="192.27" xlink:href="#linear-gradient"/><linearGradient id="linear-gradient-4" x1="0" y1="159.1" x2="517.98" y2="159.1" xlink:href="#linear-gradient"/><linearGradient id="linear-gradient-5" x1="0" y1="159.72" x2="513.68" y2="159.72" xlink:href="#linear-gradient"/><linearGradient id="linear-gradient-6" x1="0" y1="157.84" x2="512.36" y2="157.84" xlink:href="#linear-gradient"/><linearGradient id="linear-gradient-7" x1="0" y1="153.58" x2="512.86" y2="153.58" xlink:href="#linear-gradient"/><linearGradient id="linear-gradient-8" x1="0" y1="149.27" x2="514.65" y2="149.27" xlink:href="#linear-gradient"/><linearGradient id="linear-gradient-9" x1="0" y1="144.92" x2="517.4" y2="144.92" xlink:href="#linear-gradient"/><linearGradient id="linear-gradient-10" x1="0" y1="140.52" x2="520.83" y2="140.52" xlink:href="#linear-gradient"/><linearGradient id="linear-gradient-11" x1="0" y1="136.07" x2="524.76" y2="136.07" xlink:href="#linear-gradient"/><linearGradient id="linear-gradient-12" x1="0" y1="131.58" x2="529.11" y2="131.58" xlink:href="#linear-gradient"/><linearGradient id="linear-gradient-13" x1="0" y1="127.04" x2="533.8" y2="127.04" xlink:href="#linear-gradient"/><linearGradient id="linear-gradient-14" x1="0" y1="122.46" x2="538.79" y2="122.46" xlink:href="#linear-gradient"/><linearGradient id="linear-gradient-15" x1="0" y1="117.85" x2="544.03" y2="117.85" xlink:href="#linear-gradient"/><linearGradient id="linear-gradient-16" x1="0" y1="113.19" x2="549.5" y2="113.19" xlink:href="#linear-gradient"/><linearGradient id="linear-gradient-17" x1="0" y1="108.5" x2="555.16" y2="108.5" xlink:href="#linear-gradient"/><linearGradient id="linear-gradient-18" x1="0" y1="103.77" x2="560.98" y2="103.77" xlink:href="#linear-gradient"/><linearGradient id="linear-gradient-19" x1="0" y1="99" x2="566.96" y2="99" xlink:href="#linear-gradient"/></defs><g id="Layer_2" data-name="Layer 2"><g id="Logo_Principal" data-name="Logo Principal"><g class="cls-1"><path class="cls-2" d="M665.19,166.82c-5,2.88-9.94,5.89-14.84,8.87C636.77,184,622.8,192.48,607.89,198h.64c14.71-5.53,28.51-13.94,41.94-22.12,4.85-3,9.75-5.95,14.72-8.81Z"/><path class="cls-3" d="M53.63,170.77c21.11,10,40.26,16.56,58.53,20.16,21.8,4.29,42.17,4.07,60.53-.64,24.21-6.2,45.72-20.34,66.53-34,22.33-14.67,45.41-29.84,71.73-35.08,51.36-10.24,102.37,19,143.36,42.5,23,13.18,47.94,26.51,73.57,34.3h.73c-25.85-7.76-51-21.2-74.19-34.49S408.23,137.44,384.85,129c-27.28-9.86-51.47-12.48-73.94-8-26.36,5.25-49.46,20.43-71.8,35.1-20.8,13.67-42.3,27.79-66.47,34-33.84,8.68-72.73,2.3-118.92-19.51-13.4-6.32-26.7-13.48-39.57-20.39-4.68-2.52-9.4-5.06-14.15-7.57v.24c4.72,2.5,9.4,5,14.05,7.52C26.92,157.28,40.22,164.44,53.63,170.77Z"/></g><g class="cls-4"><path class="cls-5" d="M665.19,186.54l-.79.45c-6.51,3.73-13.11,7.51-19.84,11h.51c6.59-3.45,13.06-7.15,19.45-10.81l.67-.39Z"/><path class="cls-6" d="M55.54,165.52c21.28,10.76,40.63,18,59.18,22.19,22.13,5,42.93,5.32,61.8,1,24.87-5.67,47.22-19.5,68.84-32.88,23.19-14.36,47.16-29.2,74.16-33.82,52.7-9,104,22.21,145.14,47.32,16.7,10.18,34.43,20.46,52.77,28.65H518c-18.49-8.22-36.37-18.59-53.2-28.85-23.43-14.28-46.43-27.88-70-37.15-27.57-10.81-52.18-14.15-75.24-10.2-27.05,4.63-51.05,19.49-74.25,33.85-21.6,13.37-43.94,27.2-68.77,32.86-34.77,7.92-74.29.34-120.82-23.19-13.5-6.83-26.88-14.49-39.82-21.91-5.23-3-10.51-6-15.83-9v.26c5.28,3,10.52,6,15.72,8.94C28.66,151,42,158.7,55.54,165.52Z"/></g><g class="cls-7"><path class="cls-8" d="M57.46,160.28c21.43,11.54,41,19.46,59.82,24.21,22.47,5.67,43.68,6.57,63.07,2.68,25.54-5.13,48.72-18.66,71.14-31.75,24.05-14,48.92-28.56,76.61-32.57C382.14,115,433.63,148.28,475,175c12.21,7.89,25,15.84,38.17,23h.5c-13.32-7.21-26.21-15.25-38.54-23.21-23.54-15.2-46.66-29.68-70.53-39.77-27.86-11.77-52.9-15.83-76.55-12.41-27.73,4-52.62,18.55-76.69,32.6-22.4,13.08-45.57,26.6-71.07,31.72-35.7,7.17-75.85-1.62-122.73-26.86C44,152.74,30.51,144.56,17.5,136.65c-5.78-3.51-11.61-7.06-17.5-10.56v.28c5.85,3.48,11.64,7,17.38,10.49C30.39,144.77,43.85,153,57.46,160.28Z"/></g><g class="cls-9"><path class="cls-10" d="M59.37,155C81,167.36,100.74,176,119.85,181.27c22.79,6.36,44.43,7.82,64.32,4.34C210.38,181,234.4,167.79,257.63,155c24.91-13.73,50.67-27.92,79-31.31,55.38-6.62,107.11,28.64,148.69,57,8.57,5.84,17.42,11.73,26.51,17.35h.49c-9.21-5.69-18.17-11.65-26.86-17.56-23.65-16.12-46.89-31.5-71-42.4-28.15-12.73-53.62-17.51-77.85-14.62-28.42,3.4-54.2,17.61-79.14,31.35-23.2,12.78-47.2,26-73.37,30.58-36.64,6.42-77.41-3.57-124.63-30.54C45.79,147,32.26,138.29,19.18,129.89,12.85,125.82,6.46,121.72,0,117.68v.3c6.41,4,12.76,8.09,19,12.12C32.12,138.51,45.66,147.21,59.37,155Z"/></g><g class="cls-11"><path class="cls-12" d="M61.28,149.79C83,162.91,103,172.15,122.41,178.06c23.12,7,45.19,9.06,65.59,6,26.88-4,51.73-17,75.76-29.48,25.78-13.41,52.43-27.28,81.49-30,56.7-5.42,108.69,31.85,150.46,61.79,5.45,3.91,11,7.83,16.68,11.7h.47c-5.77-3.94-11.44-7.94-17-11.92-23.77-17-47.12-33.31-71.49-45-28.44-13.68-54.33-19.18-79.15-16.81-29.11,2.78-55.79,16.66-81.59,30.08-24,12.5-48.83,25.41-75.67,29.46-37.57,5.66-79-5.53-126.54-34.22C47.62,141.23,34,132,20.85,123.12,14,118.47,7,113.78,0,109.16v.33c7,4.58,13.88,9.24,20.7,13.86C33.86,132.25,47.47,141.46,61.28,149.79Z"/></g><g class="cls-13"><path class="cls-14" d="M63.19,144.54c21.91,13.91,42.12,23.82,61.78,30.3,23.46,7.74,45.95,10.31,66.86,7.64,27.55-3.51,53.23-16.14,78.06-28.35,26.64-13.1,54.19-26.64,83.93-28.8,58.05-4.21,110.27,35.07,152.24,66.62q4,3,8.12,6.05h.47q-4.26-3.13-8.42-6.28c-23.89-17.95-47.36-35.11-72-47.65-28.73-14.64-55.05-20.86-80.45-19-29.8,2.16-57.37,15.72-84,28.83-24.82,12.2-50.48,24.82-78,28.32-38.51,4.91-80.52-7.49-128.44-37.9-13.91-8.82-27.59-18.54-40.83-27.94C15.11,111.09,7.61,105.77,0,100.55v.34c7.56,5.19,15,10.47,22.36,15.7C35.59,126,49.28,135.72,63.19,144.54Z"/></g><g class="cls-15"><path class="cls-16" d="M65.11,139.3c22.07,14.69,42.49,25.26,62.42,32.32,23.79,8.43,46.71,11.56,68.12,9.3,28.22-3,54.74-15.3,80.38-27.22,27.5-12.78,55.94-26,86.36-27.54,2.06-.1,4.11-.16,6.15-.16,56.86,0,107.17,39.58,147.86,71.6l.51.4h.49l-.81-.63c-24-18.88-47.59-36.93-72.45-50.29-29-15.59-55.77-22.54-81.76-21.22-30.49,1.55-58.95,14.78-86.48,27.57-25.62,11.91-52.11,24.23-80.28,27.2-39.44,4.15-82.08-9.45-130.35-41.58-14-9.32-27.77-19.56-41.07-29.45-8-5.92-16-11.9-24.2-17.76v.37C8.13,98,16.12,104,24,109.83,37.33,119.73,51.09,130,65.11,139.3Z"/></g><g class="cls-17"><path class="cls-18" d="M67,134.05c22.23,15.48,42.86,26.72,63.07,34.36,24.12,9.11,47.46,12.8,69.39,11,28.89-2.43,56.23-14.46,82.68-26.08C310.52,140.81,339.85,127.91,371,127c1.23,0,2.45-.06,3.67-.06C430.8,126.93,480,165,520.35,198h.48c-22-18-43.83-34.93-66.81-47.9-29.31-16.55-56.48-24.21-83.06-23.42-31.18.92-60.53,13.83-88.93,26.31-26.42,11.62-53.74,23.63-82.58,26.06-40.37,3.4-83.63-11.4-132.25-45.25-14.11-9.82-27.95-20.57-41.33-31C17.37,96.23,8.77,89.56,0,83v.38c8.71,6.48,17.24,13.11,25.68,19.66C39.06,113.48,52.9,124.23,67,134.05Z"/></g><g class="cls-19"><path class="cls-20" d="M68.93,128.81c22.39,16.26,43.24,28.16,63.73,36.38,24.44,9.8,48.21,14,70.64,12.61,29.56-1.9,57.74-13.62,85-25,29.23-12.16,59.45-24.73,91.25-25h1.21c55.47,0,103.63,36.51,143.55,70.19h.46c-20-16.77-39.89-32.48-60.86-44.89-29.16-17.24-56.36-25.63-83.13-25.63h-1.23c-31.86.31-62.12,12.89-91.37,25.06-27.23,11.32-55.38,23-84.89,24.92-41.31,2.65-85.19-13.36-134.16-48.92C54.91,118.22,41,107,27.54,96.07,18.51,88.76,9.36,81.35,0,74.14v.41c9.29,7.16,18.37,14.51,27.34,21.77C40.8,107.22,54.71,118.48,68.93,128.81Z"/></g><g class="cls-21"><path class="cls-22" d="M70.84,123.56c22.55,17.05,43.61,29.62,64.38,38.41,24.77,10.49,49,15.29,71.91,14.26,30.23-1.35,59.24-12.77,87.29-23.81,29.72-11.7,60.43-23.79,92.48-23.79h1.21c54.42.52,101.32,35.44,140.55,69.36h.45c-18.08-15.58-36.25-30.09-55.33-41.87-29.89-18.46-57.91-27.56-85.66-27.83H386.9c-32.11,0-62.86,12.1-92.6,23.8-28,11-57,22.45-87.19,23.8-42.24,1.9-86.75-15.32-136.06-52.61-14.31-10.82-28.3-22.59-41.83-34C19.65,81.25,9.94,73.09,0,65.16v.43c9.87,7.88,19.5,16,29,24C42.53,101,56.52,112.73,70.84,123.56Z"/></g><g class="cls-23"><path class="cls-24" d="M72.76,118.32c22.7,17.83,44,31.06,65,40.43,25.11,11.18,49.73,16.55,73.17,15.92,30.9-.81,60.75-11.93,89.61-22.68,30.95-11.53,62.95-23.47,96.13-22.52,53,1.48,98.38,34.77,136.67,68.53h.44c-16.35-14.37-32.84-27.73-50.14-38.85-30.18-19.42-58.63-29.24-87-30-1.23,0-2.45-.06-3.68-.06-31.92,0-62.74,11.48-92.59,22.6-28.83,10.74-58.65,21.85-89.49,22.66-43.18,1.12-88.3-17.27-138-56.28-14.41-11.32-28.48-23.61-42.08-35.5C20.79,73.72,10.53,64.77,0,56.09v.45c10.45,8.62,20.63,17.51,30.66,26.27C44.26,94.7,58.33,107,72.76,118.32Z"/></g><g class="cls-25"><path class="cls-26" d="M74.67,113.07c22.87,18.62,44.35,32.51,65.67,42.46,25,11.67,49.63,17.59,73.21,17.59h1.23c31.57-.27,62.24-11.09,91.91-21.55,31.82-11.22,64.72-22.82,98.57-21.27C456.9,132.65,501,164.51,538.35,198h.44c-14.73-13.16-29.64-25.41-45.25-35.84-30.47-20.37-59.34-30.91-88.26-32.23-33.93-1.55-66.86,10.06-98.71,21.29-29.64,10.45-60.29,21.25-91.79,21.53H213.5c-43.71,0-89.07-19.63-138.6-60C60.38,101,46.24,88.16,32.56,75.78,21.93,66.15,11.13,56.38,0,46.93v.48C11,56.79,21.76,66.5,32.32,76.05,46,88.44,60.15,101.24,74.67,113.07Z"/></g><g class="cls-27"><path class="cls-28" d="M76.58,107.82c23,19.42,44.72,34,66.32,44.5,25.77,12.56,51.24,19,75.7,19.23h1.2c31.82,0,62.93-10.38,93-20.42,32.68-10.9,66.47-22.18,101-20,50.39,3.15,93.24,33.74,129.76,66.88H544a402,402,0,0,0-40.6-32.82c-30.76-21.33-60.06-32.59-89.57-34.44-34.61-2.17-68.44,9.12-101.16,20-30.07,10-61.14,20.4-92.9,20.4h-1.19c-45.05-.37-91.43-21.19-141.79-63.64C62.21,95.21,48,81.9,34.24,69,23.07,58.56,11.73,48,0,37.7v.5C11.63,48.38,22.9,58.92,34,69.3,47.73,82.18,62,95.5,76.58,107.82Z"/></g><g class="cls-29"><path class="cls-30" d="M78.49,102.58c23.19,20.2,45.1,35.41,67,46.52,26.1,13.25,52,20.28,77,20.89,32.91.79,65.25-9.41,96.52-19.29C352.5,140.12,387.18,129.17,422.4,132c49.21,3.88,90.94,33.33,126.65,66.05h.45a392.75,392.75,0,0,0-36.19-29.8c-31-22.28-60.78-34.27-90.87-36.64-35.3-2.79-70,8.17-103.6,18.77-31.25,9.87-63.57,20.06-96.4,19.26-46-1.12-93-23.14-143.69-67.31-14.72-12.82-29-26.65-42.84-40C24.22,50.94,12.33,39.45,0,28.39v.52c12.23,11,24,22.4,35.64,33.63C49.47,75.92,63.77,89.75,78.49,102.58Z"/></g><g class="cls-31"><path class="cls-32" d="M80.4,97.33c51.13,46,98.84,69.21,145.85,71.09,33.57,1.35,66.75-8.56,98.84-18.14,34.4-10.28,70-20.9,105.89-17.51,48.08,4.55,88.78,33,123.72,65.23h.46a387.07,387.07,0,0,0-32-26.79C491.85,148,461.7,135.27,431,132.37c-36-3.4-71.61,7.23-106,17.52-32.05,9.57-65.19,19.48-98.7,18.13-46.91-1.88-94.54-25.1-145.6-71C65.86,83.71,51.48,69.37,37.59,55.5,25.37,43.3,12.94,30.9,0,19v.55C12.83,31.37,25.17,43.68,37.3,55.78,51.2,69.66,65.58,84,80.4,97.33Z"/></g><g class="cls-33"><path class="cls-34" d="M39,49c14,14.37,28.43,29.23,43.35,43.05,51.49,47.68,99.82,72.14,147.77,74.78,34.25,1.88,68.25-7.72,101.14-17,35.27-10,71.73-20.27,108.33-16.25,47,5.16,86.75,32.63,121,64.4H561c-9.08-8.46-18.34-16.45-27.91-23.77-31.63-24.19-62.21-37.62-93.47-41-36.68-4-73.19,6.29-108.5,16.26-32.85,9.28-66.82,18.89-101,17C182.26,163.81,134,139.39,82.6,91.78,67.68,78,53.23,63.1,39.26,48.73,26.52,35.63,13.54,22.3,0,9.53v.58C13.44,22.79,26.31,36,39,49Z"/></g><path class="cls-35" d="M40.62,42.27C54.67,57.14,69.2,72.51,84.23,86.84,136.06,136.24,185,161.91,233.9,165.3c34.92,2.42,69.76-6.88,103.45-15.88,36.13-9.65,73.5-19.62,110.77-15,46,5.72,84.83,32.33,118.34,63.58h.5c-7.82-7.32-15.8-14.29-24-20.75C511,152.1,480,138,448.18,134c-37.36-4.64-74.77,5.35-110.94,15-33.66,9-68.46,18.28-103.31,15.87-48.78-3.39-97.65-29-149.41-78.35C69.5,72.21,55,56.84,40.93,42,27.67,27.94,14.16,13.65,0,0V.6C14,14.16,27.45,28.34,40.62,42.27Z"/></g></g></svg>