<svg xmlns="http://www.w3.org/2000/svg" xmlns:xlink="http://www.w3.org/1999/xlink" viewBox="0 0 760.37 261.66"><defs><style>.cls-1{fill:url(#linear-gradient);}.cls-2{fill:url(#linear-gradient-2);}.cls-3{fill:url(#linear-gradient-3);}</style><linearGradient id="linear-gradient" y1="154.51" x2="652.57" y2="154.51" gradientUnits="userSpaceOnUse"><stop offset="0" stop-color="#93f"/><stop offset="1" stop-color="#0a0a0a"/></linearGradient><linearGradient id="linear-gradient-2" y1="130.8" x2="760.37" y2="130.8" xlink:href="#linear-gradient"/><linearGradient id="linear-gradient-3" y1="136.6" x2="744.64" y2="136.6" xlink:href="#linear-gradient"/></defs><g id="Layer_2" data-name="Layer 2"><g id="Logo_-_Fundo_preto" data-name="Logo - Fundo preto"><path class="cls-1" d="M96.06,142.37a285.33,285.33,0,0,0,71.34,37.1c26.55,9.17,53,13.36,78.71,12.46,34.77-1.22,68.74-11.78,101.59-22,9.47-2.94,19.26-6,28.9-8.75,38-10.9,87.29-21.22,131.84-4.23C538,168.24,562,190.35,585.11,211.74c5,4.63,10.19,9.42,15.33,14,13.5,12,31,26.2,51.14,35.92h1c-20.42-9.71-38.19-24.07-51.84-36.24-5.14-4.58-10.32-9.37-15.33-14-23.19-21.42-47.17-43.57-76.81-54.87-19.4-7.41-40.87-10.2-65.62-8.53-19.68,1.33-40.81,5.38-66.49,12.75-9.65,2.76-19.44,5.81-28.9,8.75-32.83,10.2-66.77,20.75-101.49,22-49,1.74-102.22-15.84-149.78-49.48C57.15,114.32,25.14,78.88,0,47.37v.69C25.11,79.49,57,114.77,96.06,142.37Z"/><path class="cls-2" d="M126.38,129.36a330.85,330.85,0,0,0,82.79,43c30.81,10.65,61.54,15.51,91.35,14.47,40.36-1.42,79.78-13.67,117.91-25.52,11-3.42,22.34-7,33.54-10.16,44.08-12.65,101.31-24.63,153-4.91,34.3,13.09,62.1,38.76,89,63.58,5.82,5.37,11.83,10.93,17.8,16.25,13,11.57,29.17,24.84,47.62,35.47h1c-18.73-10.68-35.15-24.14-48.28-35.84-6-5.32-12-10.88-17.79-16.25-26.92-24.85-54.75-50.56-89.14-63.68-22.53-8.59-47.44-11.82-76.17-9.89-22.84,1.54-47.35,6.24-77.16,14.79-11.2,3.21-22.56,6.75-33.55,10.16-38.09,11.84-77.49,24.08-117.78,25.5-56.91,2-118.64-18.39-173.84-57.43C73.09,91.06,31,40.68,0,0V.82C31,41.44,73,91.59,126.38,129.36Z"/><path class="cls-3" d="M123.67,137.45a331.41,331.41,0,0,0,82.8,43.05C237.28,191.15,268,196,297.81,195c40.37-1.42,79.8-13.68,117.92-25.53,11-3.41,22.35-6.94,33.54-10.15,44.08-12.65,101.31-24.64,153-4.91,34.3,13.09,62.1,38.76,89,63.58,5.82,5.37,11.83,10.93,17.8,16.25a327.52,327.52,0,0,0,34.68,27.38h.9a325.27,325.27,0,0,1-35.25-27.76c-6-5.31-12-10.87-17.79-16.24-26.92-24.85-54.75-50.56-89.14-63.68-22.53-8.59-47.44-11.83-76.17-9.89-22.84,1.54-47.35,6.24-77.16,14.79-11.2,3.21-22.56,6.74-33.54,10.16-38.1,11.83-77.5,24.08-117.79,25.5-56.9,2-118.64-18.39-173.84-57.43-52-36.81-93.2-85.39-124-125.43v.83C30.74,52.4,71.8,100.76,123.67,137.45Z"/></g></g></svg>