<svg xmlns="http://www.w3.org/2000/svg" xmlns:xlink="http://www.w3.org/1999/xlink" viewBox="0 0 1200 297.06"><defs><style>.cls-1{fill:url(#linear-gradient);}.cls-2{fill:url(#linear-gradient-2);}.cls-3{fill:url(#linear-gradient-3);}.cls-4{fill:url(#linear-gradient-4);}.cls-5{fill:url(#linear-gradient-5);}.cls-6{fill:url(#linear-gradient-6);}.cls-7{fill:url(#linear-gradient-7);}.cls-8{fill:url(#linear-gradient-8);}.cls-9{fill:url(#linear-gradient-9);}.cls-10{fill:url(#linear-gradient-10);}.cls-11{fill:url(#linear-gradient-11);}.cls-12{fill:url(#linear-gradient-12);}.cls-13{fill:url(#linear-gradient-13);}.cls-14{fill:url(#linear-gradient-14);}.cls-15{fill:url(#linear-gradient-15);}.cls-16{fill:url(#linear-gradient-16);}.cls-17{fill:url(#linear-gradient-17);}.cls-18{fill:url(#linear-gradient-18);}.cls-19{fill:url(#linear-gradient-19);}.cls-20{fill:url(#linear-gradient-20);}.cls-21{fill:url(#linear-gradient-21);}.cls-22{fill:url(#linear-gradient-22);}.cls-23{fill:url(#linear-gradient-23);}.cls-24{fill:url(#linear-gradient-24);}.cls-25{fill:url(#linear-gradient-25);}.cls-26{fill:url(#linear-gradient-26);}.cls-27{fill:url(#linear-gradient-27);}.cls-28{fill:url(#linear-gradient-28);}.cls-29{fill:url(#linear-gradient-29);}.cls-30{fill:url(#linear-gradient-30);}.cls-31{fill:url(#linear-gradient-31);}.cls-32{fill:url(#linear-gradient-32);}.cls-33{fill:url(#linear-gradient-33);}</style><linearGradient id="linear-gradient" x1="0.43" y1="77.85" x2="1200" y2="77.85" gradientUnits="userSpaceOnUse"><stop offset="0" stop-color="#93f"/><stop offset="1" stop-color="#0a0a0a"/></linearGradient><linearGradient id="linear-gradient-2" x1="0.4" y1="87.04" x2="1199.91" y2="87.04" xlink:href="#linear-gradient"/><linearGradient id="linear-gradient-3" x1="0.37" y1="96.04" x2="1199.82" y2="96.04" xlink:href="#linear-gradient"/><linearGradient id="linear-gradient-4" x1="0.35" y1="104.83" x2="1199.74" y2="104.83" xlink:href="#linear-gradient"/><linearGradient id="linear-gradient-5" x1="0.32" y1="110.19" x2="1199.65" y2="110.19" xlink:href="#linear-gradient"/><linearGradient id="linear-gradient-6" x1="0.29" y1="113.83" x2="1199.56" y2="113.83" xlink:href="#linear-gradient"/><linearGradient id="linear-gradient-7" x1="0.27" y1="117.06" x2="1199.47" y2="117.06" xlink:href="#linear-gradient"/><linearGradient id="linear-gradient-8" x1="0.24" y1="120.24" x2="1199.38" y2="120.24" xlink:href="#linear-gradient"/><linearGradient id="linear-gradient-9" x1="0.21" y1="123.4" x2="1199.29" y2="123.4" xlink:href="#linear-gradient"/><linearGradient id="linear-gradient-10" x1="0.19" y1="126.56" x2="1199.21" y2="126.56" xlink:href="#linear-gradient"/><linearGradient id="linear-gradient-11" x1="0.16" y1="129.69" x2="1199.12" y2="129.69" xlink:href="#linear-gradient"/><linearGradient id="linear-gradient-12" x1="0.13" y1="132.83" x2="1199.03" y2="132.83" xlink:href="#linear-gradient"/><linearGradient id="linear-gradient-13" x1="0.11" y1="135.97" x2="1198.94" y2="135.97" xlink:href="#linear-gradient"/><linearGradient id="linear-gradient-14" x1="0.08" y1="139.11" x2="1198.85" y2="139.11" xlink:href="#linear-gradient"/><linearGradient id="linear-gradient-15" x1="0.05" y1="142.24" x2="1198.76" y2="142.24" xlink:href="#linear-gradient"/><linearGradient id="linear-gradient-16" x1="0.03" y1="145.36" x2="1198.68" y2="145.36" xlink:href="#linear-gradient"/><linearGradient id="linear-gradient-17" x1="0" y1="148.53" x2="1198.59" y2="148.53" xlink:href="#linear-gradient"/><linearGradient id="linear-gradient-18" x1="0.03" y1="153.87" x2="1198.59" y2="153.87" xlink:href="#linear-gradient"/><linearGradient id="linear-gradient-19" x1="0.05" y1="159.2" x2="1198.59" y2="159.2" xlink:href="#linear-gradient"/><linearGradient id="linear-gradient-20" x1="0.08" y1="164.57" x2="1198.59" y2="164.57" xlink:href="#linear-gradient"/><linearGradient id="linear-gradient-21" x1="0.11" y1="169.97" x2="1198.59" y2="169.97" xlink:href="#linear-gradient"/><linearGradient id="linear-gradient-22" x1="0.13" y1="175.43" x2="1198.59" y2="175.43" xlink:href="#linear-gradient"/><linearGradient id="linear-gradient-23" x1="0.16" y1="180.89" x2="1198.59" y2="180.89" xlink:href="#linear-gradient"/><linearGradient id="linear-gradient-24" x1="0.19" y1="186.4" x2="1198.59" y2="186.4" xlink:href="#linear-gradient"/><linearGradient id="linear-gradient-25" x1="0.21" y1="191.85" x2="1198.59" y2="191.85" xlink:href="#linear-gradient"/><linearGradient id="linear-gradient-26" x1="0.24" y1="194.32" x2="1198.59" y2="194.32" xlink:href="#linear-gradient"/><linearGradient id="linear-gradient-27" x1="0.27" y1="191.35" x2="1198.59" y2="191.35" xlink:href="#linear-gradient"/><linearGradient id="linear-gradient-28" x1="0.29" y1="188.22" x2="1198.59" y2="188.22" xlink:href="#linear-gradient"/><linearGradient id="linear-gradient-29" x1="0.32" y1="184.85" x2="1198.59" y2="184.85" xlink:href="#linear-gradient"/><linearGradient id="linear-gradient-30" x1="0.35" y1="181.24" x2="1198.59" y2="181.24" xlink:href="#linear-gradient"/><linearGradient id="linear-gradient-31" x1="0.37" y1="177.36" x2="1198.59" y2="177.36" xlink:href="#linear-gradient"/><linearGradient id="linear-gradient-32" x1="0.4" y1="175.72" x2="1198.59" y2="175.72" xlink:href="#linear-gradient"/><linearGradient id="linear-gradient-33" x1="0.43" y1="178.21" x2="1198.59" y2="178.21" xlink:href="#linear-gradient"/></defs><g id="Layer_2" data-name="Layer 2"><g id="Logo_-_Fundo_preto" data-name="Logo - Fundo preto"><path class="cls-1" d="M.43,124.06c25.71-2.52,51.45-5,77-8.53a594.38,594.38,0,0,0,76-15c6.18-1.86,12.43-3.5,18.52-5.64l4.59-1.53c1.54-.51,3.08-1,4.58-1.59l9.05-3.42,2.27-.86,2.22-.95,4.45-1.91c3-1.29,6-2.48,8.84-3.95l8.71-4.24c2.88-1.45,5.73-3,8.58-4.48,11.42-6,22.73-12.32,34.39-17.92s23.66-10.59,36.19-13.89a156.29,156.29,0,0,1,19-3.76c3.2-.5,6.43-.74,9.65-1,1.61-.16,3.23-.19,4.85-.3s3.23-.2,4.85-.2a246.84,246.84,0,0,1,38.71,2.25c12.83,1.67,25.53,4.14,38.15,6.94s25.17,5.93,37.67,9.19c25,6.52,49.86,13.63,74.9,20s50.28,12,75.86,15.49,51.48,4.94,77.21,2.94,51.23-7.49,75-17.5,46.29-23,70.69-31.8a190,190,0,0,1,76.43-10.27A292.88,292.88,0,0,1,937.35,37C950,39.5,962.59,42.63,975,46.18c24.87,7.09,49.15,16,73.58,24.43,12.22,4.2,24.48,8.27,36.85,12s24.88,7,37.52,9.6l4.75,1c1.58.32,3.16.65,4.76.89l9.56,1.58,9.61,1.2c1.6.23,3.21.35,4.82.47l4.83.39a227.36,227.36,0,0,0,38.7-.49,226.46,226.46,0,0,1-38.71.61l-4.83-.37c-1.61-.12-3.22-.23-4.82-.46L1142,95.83l-9.57-1.56c-1.59-.23-3.18-.56-4.76-.87l-4.76-1c-12.65-2.6-25.18-5.84-37.58-9.49s-24.67-7.72-36.9-11.88C1024,62.72,999.72,53.8,974.86,46.74c-12.42-3.53-25-6.65-37.63-9.13a291.78,291.78,0,0,0-38.38-4.86,189.35,189.35,0,0,0-76.14,10.3C798.41,51.85,776,65,752.08,74.92s-49.5,15.64-75.28,17.65-51.8.66-77.42-2.87-50.9-9.21-76-15.6S473.54,60.57,448.55,54c-12.49-3.28-25-6.4-37.63-9.23s-25.28-5.29-38.08-7a246.75,246.75,0,0,0-38.6-2.29c-1.61,0-3.22.13-4.83.2s-3.22.13-4.82.29c-3.21.31-6.43.55-9.62,1a154.91,154.91,0,0,0-19,3.72C283.53,44.06,271.56,49,259.92,54.6s-23,11.83-34.38,17.87c-2.86,1.51-5.71,3-8.6,4.48l-8.73,4.23c-2.88,1.48-5.9,2.66-8.86,3.95L194.89,87l-2.23.95-2.27.86-9.08,3.41c-1.5.6-3,1.08-4.58,1.59l-4.6,1.53c-3.07,1-6.13,2.06-9.25,2.92l-9.31,2.7A595.74,595.74,0,0,1,77.5,115.77C51.89,119.27,26.15,121.63.43,124.06Z"/><path class="cls-2" d="M.4,134.56c25.7-2,51.4-4.24,76.94-7.74a571.21,571.21,0,0,0,75.78-15l9.26-2.74,4.63-1.38,4.58-1.54,9.14-3.11,9-3.46c1.5-.59,3-1.11,4.5-1.76l4.43-1.93L203.11,94c1.47-.65,3-1.24,4.4-2,5.78-2.85,11.6-5.6,17.26-8.69,11.38-6,22.63-12.35,34.17-18.14a238.21,238.21,0,0,1,35.69-14.91,178.36,178.36,0,0,1,38-7.31c6.43-.5,12.89-.83,19.34-.78s12.91.25,19.34.67c12.88.88,25.69,2.49,38.43,4.47s25.45,4.18,38.13,6.55c25.35,4.72,50.58,10,75.81,15.34q18.92,4,37.73,8.52c6.27,1.51,12.52,3.1,18.81,4.48l9.42,2.14,4.71,1.07,4.73,1c25.23,5.08,50.94,8.2,76.69,7.68a228.44,228.44,0,0,0,38.35-3.91c6.32-1.2,12.59-2.68,18.77-4.44s12.28-3.86,18.3-6.12c24.09-9.1,47-21.18,71.59-29.26a210,210,0,0,1,37.7-8.66,226.85,226.85,0,0,1,38.63-2,238.43,238.43,0,0,1,38.41,4.55c12.66,2.5,25.14,5.83,37.5,9.52,24.72,7.35,49,16.16,73.44,24.26,12.23,4.07,24.54,7.89,37,11.36s24.95,6.5,37.61,8.92c25.28,4.88,51.24,6.91,76.92,4.33-25.67,2.66-51.66.71-77-4.09-12.67-2.38-25.23-5.37-37.66-8.81s-24.76-7.21-37-11.25c-24.49-8.06-48.74-16.85-73.46-24.17-12.35-3.67-24.81-7-37.45-9.46a237.25,237.25,0,0,0-38.31-4.49,224.4,224.4,0,0,0-38.51,2A208.36,208.36,0,0,0,823,51c-24.48,8.08-47.39,20.17-71.53,29.33-6,2.28-12.16,4.37-18.36,6.16S720.6,89.78,714.26,91a230.39,230.39,0,0,1-38.5,4c-25.84.55-51.62-2.55-76.91-7.63l-4.74-1-4.71-1.08L580,83.12c-6.3-1.38-12.55-3-18.81-4.5q-18.79-4.53-37.7-8.55C498.24,64.74,473,59.39,447.69,54.64c-12.67-2.37-25.36-4.6-38.1-6.58s-25.51-3.61-38.36-4.51c-6.42-.42-12.85-.71-19.29-.69s-12.87.27-19.28.77a176.86,176.86,0,0,0-37.83,7.24A236.7,236.7,0,0,0,259.21,65.7c-11.52,5.76-22.78,12-34.17,18.09-22.67,12.36-47,21.53-71.8,28.47a570.89,570.89,0,0,1-75.87,14.8C51.81,130.49,26.1,132.61.4,134.56Z"/><path class="cls-3" d="M.37,145.06c25.71-1.55,51.41-3.52,76.94-7,12.77-1.64,25.47-3.76,38.11-6.2l9.46-1.94c3.16-.63,6.28-1.45,9.41-2.16,6.29-1.38,12.48-3.15,18.7-4.8,3.11-.85,6.17-1.85,9.25-2.76s6.17-1.84,9.2-2.93l9.13-3.14c3-1.11,6-2.32,9-3.47l4.5-1.75c1.48-.62,3-1.28,4.43-1.92l8.83-3.89L216,98.86c1.44-.72,2.89-1.41,4.32-2.15l4.26-2.26c11.36-6.06,22.58-12.4,34-18.34a287.21,287.21,0,0,1,35.28-15.8l4.58-1.55c1.53-.5,3.08-.94,4.63-1.41,3.07-1,6.21-1.71,9.33-2.54,6.29-1.45,12.62-2.74,19-3.59A267.58,267.58,0,0,1,370,48.75c12.9.09,25.77.82,38.61,1.92S434.26,53,447.07,54.4c25.61,2.8,51.15,6.27,76.55,10.6,12.7,2.24,25.31,5,37.74,8.42s24.7,7.33,37.11,10.75c24.81,6.72,50.23,11.65,75.95,12.69a206.83,206.83,0,0,0,38.44-2.07c6.35-1,12.66-2.21,18.89-3.78s12.38-3.46,18.47-5.51c24.37-8.28,47.73-19.39,72.42-27A265.87,265.87,0,0,1,860.33,50,230.26,230.26,0,0,1,898.87,47a200.56,200.56,0,0,1,38.39,4.29c12.64,2.58,25.06,6.09,37.37,9.88q9.23,2.85,18.42,5.84l18.35,6c12.21,4.09,24.41,8.23,36.68,12.13,24.53,7.79,49.44,14.56,74.82,19s51.26,6.19,76.92,3.74c-25.65,2.53-51.6.89-77-3.5s-50.35-11.06-74.92-18.78c-12.29-3.87-24.48-8-36.7-12.08l-18.35-6q-9.2-3-18.42-5.82c-12.31-3.77-24.71-7.26-37.32-9.82a199.54,199.54,0,0,0-38.28-4.23,230,230,0,0,0-38.42,3,266.94,266.94,0,0,0-37.58,8.59c-24.61,7.57-48,18.7-72.37,27-6.1,2.07-12.28,3.95-18.53,5.55s-12.59,2.84-19,3.81a207.82,207.82,0,0,1-38.61,2.13c-25.81-1-51.3-5.93-76.17-12.65-12.42-3.43-24.74-7.26-37.1-10.79s-25-6.19-37.65-8.44c-25.37-4.35-50.89-7.85-76.49-10.67q-19.19-2.11-38.44-3.77c-12.82-1.11-25.67-1.86-38.54-2a266,266,0,0,0-38.47,2.42c-6.38.84-12.68,2.12-18.95,3.56-3.1.82-6.24,1.54-9.3,2.51-1.54.47-3.09.91-4.61,1.41l-4.57,1.54a284.92,284.92,0,0,0-35.22,15.72c-11.43,5.93-22.65,12.25-34,18.31l-4.28,2.25c-1.43.74-2.88,1.43-4.33,2.15l-8.67,4.27-8.86,3.88c-1.48.64-3,1.3-4.43,1.92l-4.51,1.75c-3,1.15-6,2.35-9,3.47l-9.15,3.13c-3,1.09-6.12,2-9.21,2.92s-6.15,1.91-9.27,2.75c-6.23,1.63-12.43,3.38-18.73,4.75-3.14.7-6.26,1.5-9.42,2.12l-9.48,1.92c-12.65,2.4-25.37,4.48-38.15,6.08C51.79,141.7,26.09,143.59.37,145.06Z"/><path class="cls-4" d="M.35,155.56c25.75-1.08,51.49-2.82,77-6.21,12.78-1.6,25.5-3.75,38.14-6.2l9.46-2,2.37-.49,2.35-.56L134.4,139c6.29-1.41,12.49-3.17,18.7-4.86a382.79,382.79,0,0,0,36.57-12.42c6-2.25,11.85-5,17.76-7.59,2.92-1.36,5.77-2.85,8.66-4.27l4.33-2.15c1.43-.72,2.84-1.5,4.27-2.25,22.71-12.12,44.83-25.62,68.9-35.08a212.37,212.37,0,0,1,37.14-10.76c6.33-1.3,12.72-2.2,19.12-3s12.83-1.33,19.27-1.71c12.88-.77,25.79-.89,38.68-.72s25.77.37,38.66.75c25.77.75,51.54,2.33,77.12,5.8a231.29,231.29,0,0,1,37.75,8.5c12.27,4,24.26,8.76,36.44,13,24.31,8.41,49.3,15.32,74.92,18a188.36,188.36,0,0,0,38.5-.22,191.42,191.42,0,0,0,19-3.1c6.28-1.38,12.5-3,18.66-4.88,24.66-7.43,48.41-17.68,73.19-24.93a366.13,366.13,0,0,1,37.67-8.8,224.78,224.78,0,0,1,38.47-3.95,164.39,164.39,0,0,1,19.34,1c6.41.71,12.78,1.8,19.09,3.14,12.63,2.69,25,6.38,37.3,10.26s24.54,7.89,36.79,11.9,24.47,8.09,36.8,11.84,24.76,7.15,37.28,10.16,25.16,5.61,37.88,7.62c25.43,4.07,51.36,5.54,77,3.2-25.68,2.42-51.63,1-77.08-3-12.74-2-25.39-4.54-37.93-7.5s-25-6.31-37.34-10-24.59-7.76-36.83-11.8-24.5-8-36.8-11.86S949.11,61.64,936.51,59c-6.29-1.33-12.64-2.41-19-3.11a162.84,162.84,0,0,0-19.25-1,223.64,223.64,0,0,0-38.35,4,366.7,366.7,0,0,0-37.59,8.81c-24.71,7.27-48.44,17.55-73.16,25-6.18,1.85-12.41,3.53-18.72,4.91a190.23,190.23,0,0,1-19.11,3.14,189.5,189.5,0,0,1-38.69.26c-25.73-2.61-50.8-9.51-75.16-17.92-12.18-4.21-24.19-9-36.4-13a230,230,0,0,0-37.59-8.5c-25.51-3.5-51.27-5.1-77-5.88-12.87-.39-25.76-.61-38.64-.8s-25.77-.06-38.62.69c-25.68,1.44-51.36,5.9-75.34,15.35S247.7,93.86,225,106c-1.43.75-2.84,1.52-4.28,2.25l-4.33,2.15c-2.9,1.42-5.76,2.9-8.69,4.26-5.91,2.57-11.74,5.35-17.79,7.59a377.43,377.43,0,0,1-36.64,12.38c-6.22,1.68-12.43,3.42-18.73,4.82l-4.7,1.11-2.36.55-2.36.49-9.48,1.94c-12.66,2.41-25.38,4.52-38.18,6.08C51.85,152.9,26.1,154.57.35,155.56Z"/><path class="cls-5" d="M.32,166.06a728.58,728.58,0,0,0,77.27-5.47c12.82-1.57,25.56-3.74,38.23-6.21,6.31-1.34,12.65-2.6,18.9-4.21l4.71-1.14,2.35-.57,2.33-.65,9.33-2.59a380.78,380.78,0,0,0,36.61-12.57c6-2.29,11.88-5.05,17.78-7.67,1.49-.63,2.91-1.38,4.36-2.1l4.33-2.17c2.88-1.45,5.78-2.86,8.61-4.42,11.39-6.09,22.59-12.53,33.93-18.73s22.82-12.18,34.73-17.24A241.5,241.5,0,0,1,330.56,68c6.27-1.58,12.61-2.88,19-4.05s12.76-2.11,19.17-2.88c12.83-1.6,25.73-2.61,38.62-3.42S433.1,56,446,55.35s25.83-1.1,38.76-1c6.46.05,12.92.21,19.38.52s12.92.73,19.35,1.52a163.56,163.56,0,0,1,37.77,8.74c3,1.14,6,2.39,9,3.6l8.88,3.88c5.92,2.59,11.82,5.22,17.75,7.76,11.86,5.09,23.87,9.86,36.12,13.9,6.13,2,12.31,3.86,18.55,5.47s12.54,3,18.9,4a179.62,179.62,0,0,0,19.23,1.91A180.31,180.31,0,0,0,709,105.4a205.68,205.68,0,0,0,38-6.62C772,92.22,796.15,82.72,821,75.6,833.44,72,846,69,858.66,66.33a212.59,212.59,0,0,1,38.43-5,157.51,157.51,0,0,1,38.52,4.06c12.63,2.8,25,6.65,37.29,10.6l36.88,11.9c12.28,4,24.58,8,37,11.56s24.92,6.78,37.53,9.58,25.3,5.2,38.09,7c25.55,3.68,51.52,4.93,77.27,2.68-25.75,2.33-51.73,1.16-77.31-2.44-12.79-1.8-25.51-4.16-38.13-6.92s-25.17-5.88-37.59-9.47-24.72-7.53-37-11.52L972.72,76.5c-12.3-3.93-24.64-7.77-37.25-10.54a156.27,156.27,0,0,0-38.36-4A211.44,211.44,0,0,0,858.81,67c-12.62,2.72-25.19,5.72-37.59,9.3C796.4,83.45,772.31,93,747.29,99.59a206.05,206.05,0,0,1-38.2,6.68,179.55,179.55,0,0,1-19.41.27,176.4,176.4,0,0,1-19.33-1.9c-6.4-1-12.73-2.4-19-4s-12.47-3.45-18.62-5.47c-12.29-4-24.33-8.8-36.21-13.89-5.94-2.56-11.84-5.19-17.75-7.78l-8.87-3.89c-3-1.21-6-2.46-9-3.59a163.34,163.34,0,0,0-37.55-8.74c-6.4-.79-12.84-1.19-19.28-1.53s-12.9-.48-19.35-.54c-12.91-.09-25.81.31-38.71,1s-25.78,1.52-38.68,2.3-25.76,1.78-38.57,3.37c-6.41.76-12.79,1.77-19.15,2.86s-12.67,2.45-18.92,4a241.27,241.27,0,0,0-36.68,12.21c-11.89,5-23.36,11-34.69,17.17s-22.55,12.61-34,18.7c-2.84,1.56-5.75,3-8.64,4.42l-4.33,2.17c-1.45.71-2.88,1.47-4.37,2.1-5.91,2.62-11.77,5.37-17.82,7.65a379,379,0,0,1-36.67,12.55l-9.35,2.56-2.34.64-2.36.56-4.71,1.13c-6.26,1.59-12.61,2.84-18.93,4.16-12.69,2.43-25.44,4.56-38.27,6.09A729.19,729.19,0,0,1,.32,166.06Z"/><path class="cls-6" d="M.29,176.56a633.13,633.13,0,0,0,77.62-4.75c12.87-1.54,25.66-3.73,38.38-6.24,6.33-1.36,12.69-2.64,19-4.28l4.72-1.17,2.36-.58,2.34-.66,9.36-2.64,2.34-.66,2.31-.74,4.63-1.48,4.63-1.48,2.32-.74,2.28-.82,9.15-3.3,2.28-.83,2.26-.91,4.5-1.82c6.05-2.33,11.92-5.1,17.82-7.76,1.49-.64,2.94-1.37,4.38-2.11l4.34-2.19c2.89-1.47,5.81-2.88,8.64-4.45,22.84-12.26,44.91-26,68.55-36.85A281.85,281.85,0,0,1,330.9,76.41a378.13,378.13,0,0,1,37.85-9.08c12.75-2.43,25.59-4.34,38.44-6.16s25.65-3.8,38.5-5.57,25.77-3.21,38.73-3.94c6.49-.39,13-.54,19.47-.57s13,.19,19.47.81a126.13,126.13,0,0,1,37.8,9.2c1.5.64,3,1.32,4.44,2s3,1.35,4.41,2.08l8.64,4.49,8.64,4.48,8.61,4.53C607.4,84.67,619,90.4,631,95.4q9,3.76,18.15,6.92a163.58,163.58,0,0,0,18.65,5.29,159.88,159.88,0,0,0,38.53,3.59A199.34,199.34,0,0,0,744.73,106c12.64-2.84,25.09-6.49,37.48-10.3L800.81,90l9.3-2.86,4.65-1.43c1.55-.46,3.12-.87,4.69-1.3l18.76-5.16q9.4-2.53,18.85-4.85c12.6-3.07,25.41-5.62,38.42-6.15s26,1.07,38.66,4,25,6.93,37.36,10.93l37,11.89c12.35,4,24.73,7.83,37.22,11.3s25.12,6.42,37.82,9,25.49,4.8,38.34,6.47a368.43,368.43,0,0,0,77.63,2.21,368,368,0,0,1-77.66-2c-12.87-1.62-25.67-3.79-38.38-6.35s-25.37-5.48-37.88-8.93-24.9-7.31-37.26-11.26L971.32,83.73c-12.33-4-24.68-8-37.31-10.87s-25.56-4.57-38.5-3.92S869.8,72,857.23,75.11Q847.8,77.44,838.4,80l-18.75,5.18c-1.56.43-3.13.84-4.68,1.31l-4.65,1.43L801,90.75l-18.59,5.73c-12.39,3.83-24.85,7.5-37.53,10.36a199.76,199.76,0,0,1-38.57,5.24,160.75,160.75,0,0,1-38.76-3.57,164.83,164.83,0,0,1-18.76-5.3c-6.15-2.09-12.22-4.42-18.21-6.92-12-5-23.66-10.73-35.17-16.72L586.83,75l-8.62-4.48-8.62-4.49c-1.45-.73-2.93-1.38-4.39-2.08s-2.94-1.37-4.42-2a125.12,125.12,0,0,0-37.5-9.17c-6.44-.62-12.91-.83-19.39-.83s-12.95.17-19.42.55c-12.93.72-25.82,2.16-38.66,3.9S420.14,60.18,407.3,62s-25.67,3.7-38.41,6.12a379.44,379.44,0,0,0-37.79,9A281.88,281.88,0,0,0,294.74,90.7c-23.6,10.77-45.68,24.51-68.55,36.76-2.84,1.57-5.77,3-8.66,4.45l-4.35,2.19c-1.45.73-2.9,1.47-4.39,2.11-5.92,2.66-11.79,5.42-17.86,7.74a381.3,381.3,0,0,1-36.77,12.76l-9.37,2.61-2.34.65-2.37.58-4.73,1.15c-6.28,1.62-12.64,2.89-19,4.23-12.74,2.47-25.54,4.62-38.42,6.12A633.63,633.63,0,0,1,.29,176.56Z"/><path class="cls-7" d="M.27,187.06a562.7,562.7,0,0,0,78.08-4c13-1.52,25.81-3.74,38.59-6.3l9.56-2.07,2.39-.52,2.37-.59,4.74-1.19,4.74-1.19,2.37-.6,2.35-.67,9.4-2.7c12.46-3.83,24.83-8,36.85-13,6.07-2.37,12-5.18,17.89-7.87,1.49-.66,2.94-1.4,4.39-2.14l4.36-2.22c2.9-1.49,5.83-2.91,8.68-4.49C250,125,272.11,111.12,295.61,99.69a334.55,334.55,0,0,1,36.15-15c12.33-4.29,24.87-8,37.51-11.19s25.38-6.1,38.11-9,25.38-6,38.11-8.84A381.67,381.67,0,0,1,484,48.82c6.49-.8,13-1.31,19.53-1.61a152.62,152.62,0,0,1,19.6.17c13,1,26.05,3.94,37.82,9.8s22.58,13.18,33.69,20S617,90.72,628.52,96.71c5.78,3,11.66,5.8,17.65,8.36a144.16,144.16,0,0,0,18.34,6.59,150.09,150.09,0,0,0,38.5,5.6,173.6,173.6,0,0,0,19.48-.85c6.48-.66,12.92-1.63,19.32-2.82s12.76-2.63,19.09-4.19,12.62-3.24,18.86-5.12l37.56-11,37.62-10.79C867.48,79,880.29,76,893.37,75.17a114.48,114.48,0,0,1,19.59.49,157.28,157.28,0,0,1,19.29,3.4c12.72,3,25.11,7.18,37.49,11.25s24.86,7.92,37.28,11.88,24.92,7.71,37.53,11,25.35,6.08,38.16,8.52,25.7,4.44,38.66,5.94a403.67,403.67,0,0,0,78.1,1.77,404.76,404.76,0,0,1-78.13-1.52c-13-1.47-25.87-3.45-38.7-5.83s-25.6-5.08-38.22-8.41-25.11-7.1-37.56-11S982,94.9,969.56,90.86s-24.77-8.21-37.45-11.2-25.7-4.68-38.7-3.83-25.75,3.82-38.28,7.37L817.53,94,780,105c-6.24,1.89-12.56,3.56-18.89,5.15s-12.7,3-19.12,4.22-12.89,2.18-19.39,2.85a175.58,175.58,0,0,1-19.59.88,151.52,151.52,0,0,1-38.73-5.59,148.54,148.54,0,0,1-18.46-6.61c-6-2.57-11.92-5.38-17.72-8.38-11.61-6-22.84-12.69-33.92-19.56s-21.89-14.26-33.59-20S536,49.29,523.1,48.29a152.7,152.7,0,0,0-19.49-.19c-6.5.29-13,.79-19.46,1.59a381.11,381.11,0,0,0-38.48,6.8c-12.72,2.83-25.38,6-38.12,8.8s-25.46,5.66-38.09,8.9S344.3,81.05,332,85.32a335.17,335.17,0,0,0-36.09,15c-23.47,11.39-45.61,25.28-68.59,37.66-2.85,1.58-5.8,3-8.7,4.49l-4.37,2.21c-1.45.75-2.9,1.49-4.4,2.14-6,2.7-11.84,5.5-17.93,7.87a391.07,391.07,0,0,1-36.91,13l-9.42,2.67-2.35.67-2.38.59-4.75,1.17-4.75,1.18-2.37.59-2.39.51-9.58,2c-12.8,2.52-25.67,4.7-38.63,6.18A560.11,560.11,0,0,1,.27,187.06Z"/><path class="cls-8" d="M.24,197.56a504.31,504.31,0,0,0,78.67-3.35l4.89-.59,2.44-.3,2.44-.38,9.74-1.49,2.43-.38,2.42-.45,4.84-.9c3.23-.63,6.47-1.13,9.67-1.89l9.62-2.11c1.61-.33,3.2-.74,4.79-1.15l4.77-1.21c6.39-1.53,12.67-3.47,19-5.29,12.52-3.95,25-8.19,37-13.35,6.11-2.41,12-5.29,18-8,1.5-.66,2.95-1.44,4.41-2.18l4.39-2.24c2.91-1.5,5.86-3,8.73-4.56,23.08-12.54,45.3-26.65,68.71-38.68q17.54-9,35.9-16.32c12.21-4.88,24.62-9.23,37.12-13.29s25.09-7.86,37.64-11.76,24.95-8.21,37.5-12.13c6.27-2,12.59-3.82,19-5.46S477.12,47,483.6,45.82c3.23-.62,6.49-1.06,9.75-1.55s6.53-.82,9.81-1.06a126.46,126.46,0,0,1,19.75-.42c13.15.77,26.31,4,37.85,10.55,2.82,1.69,5.72,3.27,8.46,5.1s5.46,3.69,8.13,5.61L593.26,75.7c10.6,7.76,21.27,15.43,32.41,22.37,5.56,3.47,11.24,6.77,17.05,9.81a129.35,129.35,0,0,0,18,7.89A134.48,134.48,0,0,0,679.62,121a141.65,141.65,0,0,0,19.47,2.51,186.48,186.48,0,0,0,39.2-2.06,361.82,361.82,0,0,0,38.48-8.23c12.7-3.36,25.3-7.09,37.88-10.86l18.88-5.66c6.27-1.92,12.51-4,18.77-6,12.5-4,25.29-7.56,38.45-8.61a108.47,108.47,0,0,1,19.74.29,148.54,148.54,0,0,1,19.43,3.44c12.81,3.08,25.24,7.41,37.71,11.54,6.23,2.08,12.5,4,18.77,6l18.8,5.9c12.55,3.89,25.15,7.61,37.89,10.82s25.63,5.77,38.56,8,26,4.08,39,5.43a445.06,445.06,0,0,0,78.71,1.34,445.26,445.26,0,0,1-78.73-1.09c-13.08-1.31-26.1-3.11-39.06-5.32s-25.87-4.7-38.62-7.92-25.37-6.91-37.92-10.78l-18.82-5.88c-6.26-2-12.55-3.91-18.78-6-12.48-4.11-24.91-8.43-37.67-11.48A148,148,0,0,0,910.42,83a108,108,0,0,0-19.61-.27c-13.09,1.06-25.81,4.62-38.3,8.62-6.25,2-12.48,4.09-18.77,6L814.86,103c-12.58,3.78-25.18,7.53-37.89,10.91a363.8,363.8,0,0,1-38.56,8.28A188,188,0,0,1,699,124.34a143.72,143.72,0,0,1-19.6-2.51,137,137,0,0,1-19.06-5.19,131.13,131.13,0,0,1-18.1-7.93c-5.83-3-11.53-6.35-17.12-9.82-11.18-7-21.88-14.62-32.49-22.38L576.78,64.84q-4-2.88-8.09-5.59c-2.72-1.82-5.6-3.39-8.4-5.08-11.38-6.47-24.4-9.69-37.43-10.47a124.85,124.85,0,0,0-19.62.4c-3.27.23-6.52.66-9.78,1s-6.49.91-9.71,1.53c-6.46,1.13-12.86,2.58-19.21,4.22s-12.66,3.47-18.92,5.43c-12.54,3.9-25,8.23-37.52,12.1S383,76.08,370.46,80.14s-24.89,8.38-37.09,13.23-24.17,10.28-35.86,16.26c-23.38,12-45.62,26.07-68.74,38.6-2.87,1.6-5.82,3.05-8.75,4.56L215.63,155c-1.47.74-2.91,1.52-4.42,2.18-6,2.72-11.9,5.6-18,8a394.09,394.09,0,0,1-37.11,13.32c-6.32,1.81-12.61,3.73-19,5.24l-4.78,1.2c-1.59.41-3.19.81-4.8,1.14l-9.63,2.08c-3.21.75-6.46,1.24-9.69,1.86l-4.84.89-2.43.44-2.43.37-9.75,1.47-2.44.36-2.45.29-4.89.59A506,506,0,0,1,.24,197.56Z"/><path class="cls-9" d="M.21,208.06A460.78,460.78,0,0,0,79.6,205.4a437,437,0,0,0,77.65-16.53c3.17-1,6.29-2.09,9.44-3.12s6.29-2.07,9.37-3.28l9.3-3.5c3.09-1.21,6.12-2.54,9.18-3.81l4.58-1.92c1.54-.63,3-1.38,4.52-2.06l9-4.2c3-1.45,5.9-3,8.85-4.51s5.9-3,8.79-4.64c23.24-12.75,45.61-27.05,69-39.69,11.67-6.29,23.56-12.21,35.67-17.62S359.28,90,371.6,85.13s24.7-9.64,37-14.58S433,60.13,445.28,55.17a262.47,262.47,0,0,1,37.79-12.48,180.59,180.59,0,0,1,19.6-3.59,111.33,111.33,0,0,1,19.91-1,95.07,95.07,0,0,1,9.94,1,81.66,81.66,0,0,1,9.75,2.18,68.61,68.61,0,0,1,9.38,3.48c1.54.64,3,1.47,4.49,2.21s2.92,1.63,4.28,2.57c2.78,1.83,5.61,3.59,8.25,5.62s5.25,4.08,7.81,6.2c5.1,4.25,10.11,8.59,15.15,12.9,10.06,8.63,20.17,17.21,30.81,25.1,5.31,4,10.75,7.72,16.36,11.23a120.34,120.34,0,0,0,17.52,9.21,135.15,135.15,0,0,0,38.24,9.89,155.64,155.64,0,0,0,19.79.91c6.62-.09,13.22-.53,19.8-1.28a310.5,310.5,0,0,0,39-7.17c6.43-1.56,12.83-3.27,19.21-5.06s12.73-3.68,19.05-5.68l19-5.94c6.28-2.08,12.5-4.38,18.74-6.61,12.46-4.46,25.21-8.63,38.48-10a99.7,99.7,0,0,1,19.92,0,141.41,141.41,0,0,1,19.61,3.44c12.91,3.15,25.42,7.62,38,11.82,6.28,2.11,12.61,4,18.94,6l19,5.89c12.67,3.86,25.41,7.53,38.3,10.63s25.93,5.46,39,7.57,26.25,3.74,39.45,4.95a494.49,494.49,0,0,0,79.43.93,494.88,494.88,0,0,1-79.46-.69q-19.8-1.74-39.47-4.83c-13.1-2.07-26.18-4.35-39.08-7.46s-25.65-6.74-38.34-10.59l-19-5.87c-6.33-2-12.68-3.9-19-6C952.4,100.58,939.9,96.13,927,93A140.6,140.6,0,0,0,907.5,89.6a98.41,98.41,0,0,0-19.79,0c-13.18,1.34-25.86,5.5-38.31,10-6.23,2.24-12.45,4.55-18.75,6.64l-19,6q-9.48,3-19.06,5.71c-6.38,1.8-12.79,3.52-19.24,5.09a312.54,312.54,0,0,1-39.13,7.23c-6.6.75-13.23,1.21-19.87,1.3a155.75,155.75,0,0,1-19.91-.89,136.17,136.17,0,0,1-38.5-9.92,121.09,121.09,0,0,1-17.66-9.25c-5.63-3.53-11.1-7.31-16.44-11.26C611.19,92.27,601.05,83.69,591,75.07c-5-4.31-10.05-8.66-15.13-12.91C573.31,60,570.74,58,568.09,56s-5.42-3.77-8.18-5.59c-1.36-.94-2.82-1.7-4.23-2.55s-2.91-1.55-4.42-2.18A68.07,68.07,0,0,0,542,42.23a79.46,79.46,0,0,0-9.64-2.17,98.19,98.19,0,0,0-9.84-1,109.68,109.68,0,0,0-19.75.94,179.26,179.26,0,0,0-19.51,3.54,262,262,0,0,0-37.68,12.41c-12.29,4.93-24.38,10.39-36.69,15.34s-24.7,9.67-37,14.54c-24.65,9.72-49,20.25-72.32,32.91s-45.7,26.87-69,39.61c-2.9,1.61-5.85,3.12-8.81,4.63s-5.88,3.07-8.87,4.51l-9,4.19c-1.51.69-3,1.44-4.53,2.07l-4.59,1.92c-3.07,1.26-6.1,2.59-9.19,3.8L176.24,183c-3.09,1.21-6.24,2.24-9.39,3.28s-6.28,2.14-9.45,3.1a436.74,436.74,0,0,1-77.78,16.31A460,460,0,0,1,.21,208.06Z"/><path class="cls-10" d="M.19,218.56l10,.55c1.67.08,3.34.22,5,.25l5,.11c3.34,0,6.69.18,10,.15l10-.14c13.39-.4,26.77-1.22,40.06-2.91a426.11,426.11,0,0,0,78.4-17l9.51-3.23,4.75-1.61,4.7-1.78,9.38-3.58,9.24-3.92,4.63-2,4.54-2.14,9.08-4.27,8.92-4.62,4.46-2.31,4.4-2.42c23.43-13,46-27.52,69.26-40.8s47.41-25,71.64-36.45c12.11-5.73,24.25-11.42,36.21-17.42s23.65-12.58,35.67-18.53c6-3,12.08-5.83,18.29-8.38s12.53-4.84,19-6.75a169,169,0,0,1,19.62-4.52,96,96,0,0,1,10-1.23,86.93,86.93,0,0,1,10.08-.21A74.14,74.14,0,0,1,542,36.78a68.67,68.67,0,0,1,9.37,3.82,62.13,62.13,0,0,1,8.6,5.31,120.9,120.9,0,0,1,15.45,12.92c4.85,4.64,9.59,9.38,14.34,14.1,9.5,9.45,19,18.92,29.06,27.72s20.61,17.19,32.59,23.14a130.41,130.41,0,0,0,38,12.21,149.66,149.66,0,0,0,19.93,1.88,186.14,186.14,0,0,0,20-.44A275.07,275.07,0,0,0,769,131.39c13.06-2.91,26-6.53,38.74-10.51q9.59-3,19.06-6.34c6.3-2.24,12.5-4.75,18.73-7.23,12.42-5,25.12-9.73,38.5-11.43a92.63,92.63,0,0,1,20.11-.35A131.82,131.82,0,0,1,924,98.92c13,3.19,25.65,7.81,38.34,12.08,6.34,2.16,12.74,4.1,19.14,6.08s12.8,4,19.21,5.9c12.83,3.85,25.73,7.46,38.78,10.46s26.27,5.19,39.52,7.14,26.56,3.41,39.92,4.47a553.13,553.13,0,0,0,80.29.55,554.83,554.83,0,0,1-80.31-.3q-20-1.53-40-4.36c-13.25-1.91-26.5-4-39.57-7s-26-6.59-38.82-10.43c-6.42-1.91-12.81-3.92-19.22-5.87s-12.82-3.91-19.17-6.07c-12.69-4.26-25.3-8.86-38.3-12a131.11,131.11,0,0,0-19.74-3.36,92.69,92.69,0,0,0-20,.36C870.86,98.24,858.23,103,845.82,108c-6.22,2.48-12.43,5-18.75,7.26s-12.68,4.36-19.07,6.37c-12.8,4-25.71,7.63-38.8,10.56a274.87,274.87,0,0,1-39.74,6.11,187.58,187.58,0,0,1-20.12.47,151.45,151.45,0,0,1-20.05-1.88A131.16,131.16,0,0,1,651,124.61,117.43,117.43,0,0,1,633.9,114c-5.4-4-10.61-8.24-15.67-12.65-10.12-8.82-19.63-18.28-29.13-27.73-4.75-4.72-9.49-9.47-14.31-14.1a119.55,119.55,0,0,0-15.33-12.85A59.73,59.73,0,0,0,551,41.45a66.6,66.6,0,0,0-9.22-3.78,73.76,73.76,0,0,0-19.63-3.29,87.67,87.67,0,0,0-10,.2,97.85,97.85,0,0,0-9.93,1.21,170.15,170.15,0,0,0-19.52,4.47c-6.4,1.9-12.69,4.19-18.88,6.71s-12.25,5.38-18.25,8.33c-12,5.93-23.69,12.49-35.68,18.49s-24.13,11.68-36.25,17.39c-24.24,11.4-48.37,23.07-71.64,36.36s-45.84,27.75-69.3,40.73l-4.41,2.41L223.81,173l-8.93,4.62-9.1,4.27L201.23,184l-4.63,2-9.26,3.92-9.4,3.57-4.7,1.78-4.76,1.61L159,200.06a426.57,426.57,0,0,1-78.52,16.75c-13.3,1.65-26.69,2.43-40.08,2.79l-10,.11c-3.35,0-6.7-.13-10-.18l-5-.12c-1.67,0-3.34-.18-5-.27Z"/><path class="cls-11" d="M.16,229.06c54,4.82,108.9-2.09,160.4-18.84a417.63,417.63,0,0,0,74.27-32.72c23.65-13.25,46.37-28.07,69.64-42s47.11-26.89,70.84-40c11.85-6.57,23.68-13.19,35.25-20.24s22.83-14.62,34.51-21.53C450.92,50.29,456.87,47,463,44a189.64,189.64,0,0,1,18.77-7.92,160.9,160.9,0,0,1,19.64-5.44,90.42,90.42,0,0,1,20.3-1.89c1.7,0,3.4.18,5.1.29s3.4.36,5.07.69a59.3,59.3,0,0,1,9.91,2.54,57.07,57.07,0,0,1,9.34,4.19l2.2,1.31c.75.43,1.42.95,2.14,1.42,1.44.93,2.74,2,4.08,3.08s2.7,2.08,4,3.21S566,47.77,567.23,49c2.45,2.37,4.79,4.83,7.08,7.34,4.58,5,9,10.13,13.48,15.24,8.89,10.24,17.73,20.53,27.21,30.2s19.45,19,31.15,25.78a125.79,125.79,0,0,0,37.6,14.63,164.22,164.22,0,0,0,40.31,3.4,244.59,244.59,0,0,0,40.25-4.86,372.36,372.36,0,0,0,39.28-10.29q9.67-3.07,19.19-6.65c6.33-2.39,12.53-5.12,18.74-7.84,12.37-5.45,25-10.84,38.49-13a87.74,87.74,0,0,1,20.35-.81,124.13,124.13,0,0,1,20.09,3.28c13.21,3.2,25.94,8,38.76,12.33,6.41,2.21,12.89,4.17,19.37,6.15s12.95,4,19.45,5.92c13,3.84,26.08,7.42,39.31,10.33s26.64,4.93,40.07,6.73,26.93,3.09,40.45,4a622.43,622.43,0,0,0,81.26.16,622.74,622.74,0,0,1-81.28.09q-20.29-1.32-40.48-3.9c-13.44-1.75-26.88-3.68-40.13-6.61s-26.34-6.47-39.35-10.3c-6.5-1.91-13-3.93-19.46-5.89s-13-3.93-19.39-6.14c-12.84-4.34-25.56-9.1-38.73-12.27a122,122,0,0,0-20-3.25,86.9,86.9,0,0,0-20.19.83c-13.37,2.19-26,7.55-38.31,13-6.21,2.73-12.42,5.47-18.77,7.87s-12.76,4.62-19.22,6.68a370.87,370.87,0,0,1-39.35,10.36,246,246,0,0,1-40.39,4.91A165.09,165.09,0,0,1,683.56,143a126.71,126.71,0,0,1-37.88-14.7,111.59,111.59,0,0,1-16.53-11.93c-5.15-4.44-10.08-9.13-14.83-14-9.52-9.69-18.39-20-27.28-30.21C582.59,67.07,578.15,62,573.59,57c-2.28-2.5-4.61-5-7-7.31q-1.81-1.76-3.71-3.44c-1.27-1.12-2.63-2.11-3.93-3.18s-2.62-2.14-4-3.05c-.7-.46-1.37-1-2.1-1.39l-2.17-1.29a55.69,55.69,0,0,0-9.18-4.14,58.39,58.39,0,0,0-9.75-2.51c-1.65-.33-3.33-.47-5-.69s-3.36-.28-5-.29c-13.52-.39-26.87,2.94-39.63,7.24a188.85,188.85,0,0,0-18.69,7.86c-6.07,3-12,6.25-17.84,9.68C433.83,61.33,422.56,68.87,411,75.93s-23.44,13.67-35.3,20.23c-23.75,13.08-47.63,25.93-70.86,39.9s-46,28.71-69.7,41.95a416.48,416.48,0,0,1-74.4,32.67C109.1,227.3,54.19,234,.16,229.06Z"/><path class="cls-12" d="M.13,239.56l10.26.9c1.72.13,3.42.34,5.14.41l5.14.23,5.14.24c1.72.08,3.43.18,5.15.16l10.3.05h2.57l2.58-.09,5.14-.18c3.43-.13,6.86-.19,10.28-.51L72.1,240c3.42-.33,6.82-.76,10.24-1.14l5.11-.58,5.09-.77L102.72,236,112.83,234c1.68-.34,3.38-.61,5-1l5-1.16a403.79,403.79,0,0,0,39.64-11.1l9.71-3.4,2.43-.85,2.4-.93,4.79-1.88,4.8-1.87,2.39-.95,2.36-1,9.44-4.1c1.59-.66,3.14-1.4,4.68-2.15l4.64-2.22c3.09-1.5,6.23-2.9,9.24-4.55l9.12-4.78c1.52-.78,3-1.62,4.52-2.46s3-1.66,4.49-2.52c23.89-13.54,46.81-28.71,70-43.36s46.77-28.85,69.91-43.64c11.56-7.4,23-15,34.14-23S433.56,60.49,444.9,52.7q8.49-5.87,17.46-11a161.35,161.35,0,0,1,18.56-9,141,141,0,0,1,19.65-6.33,94.92,94.92,0,0,1,10.19-1.82A79.32,79.32,0,0,1,521.1,24a59.44,59.44,0,0,1,20.3,3.76A56,56,0,0,1,559,38.61,117.14,117.14,0,0,1,573,53.76c4.29,5.37,8.45,10.84,12.59,16.33,8.28,11,16.44,22,25.29,32.5,4.43,5.24,9,10.33,13.87,15.18,2.4,2.45,4.94,4.74,7.53,7s5.34,4.29,8.17,6.21a113.85,113.85,0,0,0,17.81,10.13,125.85,125.85,0,0,0,19.27,7,158.47,158.47,0,0,0,40.6,5.48A222.83,222.83,0,0,0,759.07,150a300.87,300.87,0,0,0,39.88-10q9.79-3.15,19.37-6.93c6.38-2.5,12.58-5.45,18.78-8.41s12.38-6,18.75-8.56a109.46,109.46,0,0,1,19.7-6.15,80.67,80.67,0,0,1,20.57-1.44,114.14,114.14,0,0,1,20.4,3.11c13.4,3.21,26.27,8.11,39.25,12.57,6.48,2.26,13,4.26,19.62,6.24s13.13,4,19.72,5.94c13.18,3.85,26.45,7.4,39.88,10.24s27,4.71,40.67,6.34,27.32,2.79,41,3.57a709.06,709.06,0,0,0,82.34-.22,709.39,709.39,0,0,1-82.36.46q-20.57-1.11-41.05-3.44c-13.64-1.6-27.28-3.38-40.73-6.23s-26.74-6.37-39.93-10.2C988.36,135,981.8,133,975.22,131s-13.15-4-19.64-6.23c-13-4.45-25.86-9.34-39.21-12.51a113,113,0,0,0-20.28-3.07,79.85,79.85,0,0,0-20.41,1.44,109.39,109.39,0,0,0-19.57,6.13c-6.34,2.59-12.51,5.61-18.71,8.57s-12.4,5.93-18.81,8.45-12.87,4.85-19.41,7a302,302,0,0,1-40,10.06,223.48,223.48,0,0,1-41.06,3.61A159.14,159.14,0,0,1,677.32,149a126.76,126.76,0,0,1-19.4-7.06,115.63,115.63,0,0,1-18-10.19c-2.86-1.94-5.57-4.07-8.24-6.25s-5.19-4.56-7.6-7c-4.87-4.86-9.5-10-13.94-15.22-8.89-10.5-17.08-21.56-25.35-32.52-4.13-5.49-8.29-11-12.56-16.32a116.77,116.77,0,0,0-13.92-15,55.32,55.32,0,0,0-17.28-10.7,58.72,58.72,0,0,0-20-3.72,81.26,81.26,0,0,0-10.22.51,96.3,96.3,0,0,0-10.08,1.8,141.84,141.84,0,0,0-19.53,6.26,160.48,160.48,0,0,0-18.47,9q-8.94,5.09-17.41,10.93c-11.32,7.77-22.14,16.24-33.27,24.31s-22.62,15.61-34.2,23c-23.17,14.77-46.75,28.88-69.95,43.57s-46.2,29.77-70.13,43.31q-2.23,1.28-4.49,2.52c-1.51.83-3,1.67-4.53,2.45l-9.14,4.78c-3,1.65-6.16,3-9.25,4.54l-4.65,2.22c-1.55.75-3.1,1.49-4.69,2.15l-9.46,4.09-2.36,1-2.4.94-4.8,1.87-4.8,1.87-2.4.94-2.44.84-9.73,3.39a404.58,404.58,0,0,1-39.71,11l-5,1.14c-1.67.39-3.37.66-5.06,1l-10.12,1.91-10.19,1.54-5.1.76-5.12.57c-3.41.36-6.82.78-10.24,1.1L61.85,241c-3.43.3-6.86.35-10.29.47l-5.15.17-2.58.08c-.85,0-1.71,0-2.57,0L31,241.59c-1.72,0-3.43-.09-5.15-.18l-5.14-.25-5.15-.25c-1.71-.07-3.42-.29-5.13-.42Z"/><path class="cls-13" d="M.11,250.06l10.39,1.08c1.73.15,3.46.41,5.2.48l5.21.31,5.22.3,2.6.16c.87,0,1.74,0,2.61.05l10.45.15c1.74.06,3.48,0,5.22-.06l5.22-.15,5.22-.15c1.74,0,3.47-.22,5.21-.32l10.42-.74L83.46,250c1.73-.21,3.46-.36,5.18-.61l5.17-.79c3.43-.55,6.89-1,10.31-1.63,6.83-1.34,13.69-2.54,20.45-4.24l5.08-1.18,2.54-.6,2.52-.69,10.07-2.76c1.69-.43,3.34-1,5-1.49l5-1.57c3.32-1.05,6.66-2,9.92-3.26l9.84-3.49c3.27-1.21,6.48-2.55,9.72-3.81L189.1,222c1.61-.66,3.19-1.39,4.79-2.08l9.56-4.19,9.41-4.53,4.7-2.27,4.62-2.43,9.24-4.87c3-1.69,6.08-3.39,9.09-5.13,24.15-13.89,47.3-29.43,70.49-44.87s46.35-31,68.82-47.42C391,96,402.09,87.45,412.7,78.45s21-18.38,31.95-27q8.19-6.51,17-12.19A145.32,145.32,0,0,1,480,29.19,125.76,125.76,0,0,1,499.69,22a77.8,77.8,0,0,1,20.76-2.83,63.37,63.37,0,0,1,10.46,1,53.62,53.62,0,0,1,10.08,3A54.46,54.46,0,0,1,558.3,35a115.23,115.23,0,0,1,13.32,16.19c4,5.71,7.87,11.51,11.7,17.34C591,80.22,598.44,92,606.65,103.21c4.11,5.62,8.4,11.1,13,16.36A108.55,108.55,0,0,0,634.52,134a116.36,116.36,0,0,0,17.33,11.47,131.18,131.18,0,0,0,19.07,8.32,153.29,153.29,0,0,0,40.82,7.69,203.75,203.75,0,0,0,41.58-2.08,255.46,255.46,0,0,0,40.56-9.59q9.95-3.19,19.6-7.16c6.43-2.63,12.68-5.7,18.85-8.92s12.34-6.47,18.68-9.4a108.82,108.82,0,0,1,19.69-7.09,76.82,76.82,0,0,1,10.32-1.8c1.74-.2,3.49-.23,5.24-.35s3.49,0,5.24,0a106.5,106.5,0,0,1,20.73,2.82c13.62,3.14,26.66,8.18,39.8,12.76,6.57,2.32,13.21,4.38,19.89,6.36s13.33,4,20,6c13.38,3.86,26.85,7.4,40.5,10.18s27.47,4.5,41.32,6,27.74,2.48,41.65,3.12a819.48,819.48,0,0,0,83.53-.59,822.59,822.59,0,0,1-83.54.84q-20.88-.91-41.68-3c-13.86-1.43-27.72-3.07-41.38-5.86s-27.16-6.29-40.55-10.14c-6.69-1.94-13.35-4-20-6s-13.35-4-19.92-6.35c-13.15-4.57-26.19-9.59-39.75-12.7a106.23,106.23,0,0,0-20.61-2.79c-1.73,0-3.47-.09-5.2,0s-3.47.15-5.19.35a75.53,75.53,0,0,0-10.23,1.8A107.54,107.54,0,0,0,851.3,125c-6.31,2.92-12.46,6.19-18.64,9.4s-12.45,6.31-18.9,9-13,5.06-19.65,7.2a256.69,256.69,0,0,1-40.67,9.65,204.59,204.59,0,0,1-41.74,2.13,154.13,154.13,0,0,1-41.07-7.69,131.8,131.8,0,0,1-19.2-8.36,118,118,0,0,1-17.49-11.54,110.32,110.32,0,0,1-15.05-14.58c-4.58-5.27-8.89-10.77-13-16.4-8.25-11.26-15.75-23-23.4-34.67-3.81-5.83-7.67-11.63-11.65-17.33a113.91,113.91,0,0,0-13.2-16.06,50.69,50.69,0,0,0-26.89-14.59,64.77,64.77,0,0,0-10.3-1,77,77,0,0,0-20.52,2.78A125.76,125.76,0,0,0,480.37,30a144.33,144.33,0,0,0-18.25,10,208.15,208.15,0,0,0-17,12.12c-11,8.57-21.3,17.93-32,26.93S391.5,96.56,380.26,104.8c-22.51,16.45-45.73,31.87-68.89,47.36S265,183.1,240.8,197c-3,1.74-6.06,3.44-9.11,5.13L222.44,207l-4.63,2.43-4.71,2.26-9.43,4.52-9.57,4.2c-1.61.68-3.19,1.42-4.8,2.07l-4.86,1.92c-3.25,1.26-6.47,2.6-9.74,3.8l-9.86,3.48c-3.27,1.21-6.61,2.2-9.94,3.24l-5,1.55c-1.66.52-3.32,1.05-5,1.48l-10.09,2.73-2.52.69-2.55.59-5.09,1.17c-6.77,1.68-13.64,2.86-20.48,4.18-3.42.63-6.88,1.06-10.32,1.6l-5.17.77c-1.73.25-3.46.4-5.19.6L73.1,251.38l-10.43.71c-1.74.1-3.47.27-5.21.31l-5.23.13-5.22.13c-1.74.05-3.48.12-5.22.05l-10.45-.18c-.87,0-1.74,0-2.61-.06l-2.61-.16L20.91,252l-5.22-.32c-1.74-.08-3.46-.34-5.19-.5Z"/><path class="cls-14" d="M.08,260.56l10.53,1.26,2.63.31,1.32.16,1.32.1,5.29.37,5.29.38,2.65.19,2.65.06,10.6.26c1.77.08,3.53,0,5.3,0l5.3-.11,5.3-.12c1.77-.08,3.53-.22,5.29-.33,3.53-.25,7.06-.44,10.58-.73l10.54-1.16a359.86,359.86,0,0,0,41.71-7.53l5.16-1.22c1.72-.39,3.41-.92,5.11-1.38l10.22-2.83L157,245l5-1.62,5-1.8c3.32-1.21,6.66-2.37,10-3.61l9.84-4c1.63-.67,3.29-1.27,4.9-2l4.85-2.15c3.22-1.45,6.48-2.81,9.66-4.35,6.35-3.11,12.76-6.09,19-9.5,3.11-1.68,6.27-3.27,9.34-5s6.15-3.48,9.21-5.26c24.42-14.27,47.8-30.23,70.9-46.55s45.83-33.19,67.54-51.31q8.15-6.8,16-13.87c2.65-2.34,5.23-4.76,7.83-7.15s5.13-4.86,7.65-7.34c10.13-9.86,20-20,30.63-29.4,2.62-2.38,5.38-4.6,8.1-6.88s5.55-4.41,8.47-6.42,5.87-4,8.83-5.93c1.52-.91,3.07-1.78,4.6-2.67.78-.44,1.53-.91,2.32-1.31l2.37-1.2,2.38-1.2c.79-.41,1.58-.82,2.4-1.15l4.89-2.11a26.49,26.49,0,0,1,2.48-1l2.5-.9c1.68-.59,3.34-1.22,5-1.69s3.43-.95,5.15-1.39c.86-.2,1.74-.36,2.61-.54s1.74-.35,2.62-.47a64.25,64.25,0,0,1,10.64-.85,55,55,0,0,1,10.62,1.06,50.53,50.53,0,0,1,10.18,3.26,49.53,49.53,0,0,1,9.17,5.5c.74.51,1.38,1.13,2.07,1.69s1.38,1.14,2,1.76q2,1.83,3.76,3.79a113.87,113.87,0,0,1,12.57,17.17c3.71,6,7.28,12.15,10.79,18.3,7,12.29,13.83,24.7,21.39,36.64,3.78,6,7.74,11.81,12,17.45a114.85,114.85,0,0,0,14.06,15.74,118.82,118.82,0,0,0,35.57,22.42,148.38,148.38,0,0,0,40.94,10.08,191.32,191.32,0,0,0,42.25-.47,225.42,225.42,0,0,0,41.31-9q10.1-3.21,19.86-7.34a192.06,192.06,0,0,0,19-9.37c6.19-3.41,12.31-7,18.61-10.21a112.16,112.16,0,0,1,19.63-8.13c1.72-.45,3.41-1,5.16-1.32l2.6-.55c.87-.17,1.76-.27,2.64-.4s1.75-.27,2.64-.37l2.65-.19,2.66-.18h2.66a98,98,0,0,1,21.1,2.43c13.87,3,27.1,8.2,40.42,12.91,6.65,2.39,13.37,4.54,20.17,6.51l20.33,6c13.6,3.89,27.3,7.43,41.17,10.15q10.39,2,20.92,3.38l10.53,1.22c3.52.34,7,.75,10.55,1.05q21.12,1.93,42.33,2.68c28.26,1,56.57.51,84.81-1-28.24,1.57-56.54,2.16-84.82,1.23q-21.19-.71-42.35-2.57c-3.53-.28-7-.68-10.56-1l-10.54-1.18q-10.55-1.31-21-3.33c-13.89-2.7-27.61-6.24-41.21-10.11l-20.35-6c-6.79-2-13.55-4.12-20.2-6.5-13.33-4.71-26.56-9.86-40.37-12.85a98,98,0,0,0-21-2.4h-2.64l-2.63.19-2.64.19c-.87.1-1.74.25-2.61.36s-1.74.23-2.61.41l-2.58.54c-1.73.32-3.41.87-5.11,1.32a109.59,109.59,0,0,0-19.5,8.1c-6.29,3.23-12.39,6.79-18.58,10.22a198.08,198.08,0,0,1-19,9.43q-9.78,4.14-19.92,7.37a225.21,225.21,0,0,1-41.45,9.1,190.51,190.51,0,0,1-42.43.51A148.94,148.94,0,0,1,663.6,160a119.85,119.85,0,0,1-35.86-22.57,115.37,115.37,0,0,1-14.19-15.85c-4.28-5.65-8.27-11.52-12.06-17.5-7.59-12-14.43-24.38-21.44-36.66-3.5-6.14-7.06-12.25-10.76-18.27a112.23,112.23,0,0,0-12.45-17c-1.18-1.29-2.42-2.54-3.7-3.75-.63-.61-1.32-1.15-2-1.72s-1.31-1.17-2-1.67a49.31,49.31,0,0,0-9-5.4,50.72,50.72,0,0,0-10-3.21,54.71,54.71,0,0,0-10.45-1.05,63.48,63.48,0,0,0-10.48.83c-.88.12-1.74.28-2.6.46s-1.72.34-2.58.54c-1.7.43-3.42.83-5.09,1.36s-3.35,1.09-5,1.68l-2.49.89c-.83.29-1.66.58-2.46.95l-4.86,2.09c-.81.33-1.6.73-2.38,1.13l-2.36,1.19-2.36,1.19c-.79.4-1.53.87-2.3,1.3-1.52.89-3.06,1.75-4.57,2.66-3,1.92-6,3.78-8.79,5.88s-5.65,4.23-8.45,6.38-5.45,4.48-8.07,6.85C434.24,60,424.39,70.21,414.24,80.06c-2.52,2.49-5.1,4.91-7.67,7.35s-5.19,4.81-7.84,7.15q-7.91,7.09-16.08,13.88C360.9,126.56,338.1,143.36,315,159.71S268.48,192,244,206.22q-4.59,2.67-9.22,5.26c-3.08,1.75-6.24,3.34-9.36,5-6.2,3.41-12.62,6.39-19,9.5-3.19,1.53-6.46,2.89-9.68,4.35l-4.86,2.14c-1.61.74-3.27,1.34-4.91,2l-9.85,3.94c-3.31,1.25-6.66,2.4-10,3.6l-5,1.79-5,1.6L147,248.6l-10.23,2.81c-1.71.45-3.4,1-5.13,1.36l-5.17,1.2a360.37,360.37,0,0,1-41.76,7.42l-10.55,1.13c-3.53.28-7.06.46-10.59.7-1.76.1-3.53.24-5.29.32l-5.31.1-5.3.1c-1.77,0-3.54.11-5.3,0l-10.61-.29-2.65-.07-2.64-.2-5.29-.39-5.29-.39-1.32-.1-1.32-.16-2.63-.32Z"/><path class="cls-15" d="M.05,271.06A321.38,321.38,0,0,0,43,274.71c3.59.05,7.18-.08,10.77-.11,1.8,0,3.59,0,5.39-.1l5.38-.33,5.37-.33c1.79-.13,3.59-.18,5.37-.41L86,272.28l2.67-.29,2.67-.4,5.32-.81c3.55-.55,7.11-1,10.63-1.79l10.57-2.06c3.5-.8,7-1.66,10.48-2.48,1.75-.43,3.5-.82,5.24-1.27l5.18-1.46c3.45-1,6.93-1.89,10.36-3,6.83-2.23,13.7-4.31,20.41-6.89,27.06-9.69,52.92-22.47,77.66-37.06s48.31-31.15,71.28-48.42a780.5,780.5,0,0,0,66.07-55.3c5.21-5,10.35-10,15.36-15.11s9.91-10.4,14.7-15.75c9.62-10.68,19.05-21.56,29.33-31.65A197.93,197.93,0,0,1,460,34.24l2.11-1.69L464.34,31c1.47-1,2.9-2.13,4.39-3.14,3-1.95,6-4,9.21-5.67,3.09-1.87,6.4-3.33,9.63-4.92,1.65-.73,3.35-1.36,5-2l2.51-1,2.57-.87q1.27-.45,2.58-.81c.87-.24,1.74-.5,2.61-.73,1.76-.4,3.51-.86,5.3-1.14s3.58-.54,5.37-.75c.9-.09,1.81-.12,2.71-.18l1.36-.07H519a47,47,0,0,1,21,4.67l2.42,1.25L544.73,17c.38.25.77.48,1.14.74l1.09.82c.71.56,1.45,1.08,2.15,1.67,1.33,1.23,2.74,2.39,4,3.7s2.47,2.65,3.62,4a114.1,114.1,0,0,1,11.82,18.12c3.43,6.33,6.7,12.73,9.9,19.18,6.39,12.88,12.53,25.89,19.44,38.48,3.45,6.29,7.1,12.48,11,18.46a114.66,114.66,0,0,0,47.72,42.07,145.67,145.67,0,0,0,41,12.53c28.37,4.38,57.65,1.48,85-7a201.58,201.58,0,0,0,20.18-7.44c1.65-.71,3.29-1.43,4.91-2.19s3.23-1.55,4.83-2.35c3.18-1.66,6.33-3.39,9.42-5.21,6.2-3.61,12.29-7.45,18.54-11a123.39,123.39,0,0,1,19.53-9.2c.84-.33,1.71-.59,2.57-.85l2.59-.78q2.63-.67,5.27-1.24l2.68-.43a26.57,26.57,0,0,1,2.68-.37l2.69-.23c.9-.07,1.8-.19,2.7-.17a90.11,90.11,0,0,1,21.49,1.92c14.15,2.87,27.6,8.17,41.1,13,6.75,2.45,13.55,4.73,20.47,6.69l20.67,6.1c13.83,3.9,27.76,7.47,41.87,10.14s28.41,4.17,42.73,5.34,28.68,1.87,43,2.25c28.73.74,57.48,0,86.18-1.37-28.69,1.49-57.45,2.28-86.19,1.61q-21.55-.5-43.06-2.12c-14.32-1.13-28.66-2.49-42.79-5.23s-28.09-6.21-41.92-10.11l-20.69-6.07c-6.91-1.95-13.75-4.24-20.51-6.69-13.51-4.86-26.94-10.13-41-13A90.06,90.06,0,0,0,881.24,129a26.59,26.59,0,0,0-2.68.17l-2.67.24a26.55,26.55,0,0,0-2.66.36l-2.64.43q-2.62.57-5.22,1.23l-2.57.78c-.86.26-1.71.52-2.55.85a121.51,121.51,0,0,0-19.41,9.17c-6.23,3.55-12.31,7.39-18.52,11-3.1,1.83-6.26,3.57-9.45,5.23-1.61.82-3.23,1.6-4.85,2.38s-3.28,1.49-4.93,2.2a205.65,205.65,0,0,1-20.25,7.49c-27.47,8.52-56.86,11.46-85.38,7.08a146.41,146.41,0,0,1-41.21-12.56,118.78,118.78,0,0,1-34.83-25.29c-.61-.66-1.24-1.3-1.84-2l-1.77-2c-1.21-1.35-2.29-2.8-3.42-4.2s-2.14-2.91-3.21-4.36l-3-4.47c-4-6-7.64-12.21-11.11-18.52-6.94-12.62-13.1-25.63-19.5-38.5-3.18-6.44-6.45-12.84-9.86-19.15a112.88,112.88,0,0,0-11.69-18q-1.71-2.05-3.57-4c-1.23-1.31-2.6-2.44-3.91-3.65-.68-.57-1.4-1.09-2.11-1.63l-1.06-.81c-.36-.26-.74-.48-1.12-.72L542,16.37l-2.37-1.23A46.12,46.12,0,0,0,519,10.55h-1.34l-1.33.07c-.89.06-1.78.08-2.67.17-1.77.22-3.55.39-5.3.74s-3.49.73-5.24,1.12c-.86.22-1.71.48-2.57.72s-1.72.5-2.56.8L495.4,15l-2.49,1c-1.66.67-3.34,1.29-5,2-3.21,1.57-6.49,3-9.56,4.87-3.17,1.67-6.14,3.69-9.15,5.62-1.49,1-2.92,2.08-4.37,3.12l-2.18,1.58-2.1,1.68a192.53,192.53,0,0,0-16.09,14.27c-10.26,10-19.69,20.9-29.32,31.58q-7.21,8-14.74,15.76c-5,5.14-10.18,10.16-15.39,15.12a781.76,781.76,0,0,1-66.2,55.28c-23,17.26-46.62,33.72-71.37,48.39s-50.69,27.36-77.79,37c-6.73,2.56-13.62,4.63-20.46,6.84-3.43,1.05-6.92,1.95-10.37,2.93l-5.2,1.45c-1.74.44-3.49.83-5.24,1.25-3.5.82-7,1.67-10.5,2.45l-10.59,2c-3.52.75-7.08,1.22-10.64,1.76l-5.33.79-2.66.4-2.68.28-10.73,1.13c-1.78.22-3.58.26-5.37.38l-5.38.32-5.38.32c-1.8.05-3.6.05-5.39.08-3.6,0-7.19.14-10.78.08A321.39,321.39,0,0,1,.05,271.06Z"/><path class="cls-16" d="M0,281.55a304.76,304.76,0,0,0,43.58,4.23c3.66,0,7.31,0,11-.06,1.83,0,3.65,0,5.48-.1l5.47-.31L71,285l2.74-.16c.91-.07,1.82-.18,2.72-.27l10.9-1.15a375.33,375.33,0,0,0,84.8-21.31l5.13-1.9c1.71-.65,3.39-1.37,5.08-2.06L192.48,254l10-4.52c1.66-.76,3.34-1.48,5-2.28l4.91-2.43c3.26-1.64,6.56-3.2,9.79-4.9l9.66-5.18c6.43-3.45,12.73-7.15,19-10.91a655.89,655.89,0,0,0,71.57-50.5,629.25,629.25,0,0,0,64.4-59.37c10-10.64,19.48-21.77,28.56-33.22,4.56-5.71,9.1-11.44,13.72-17.11S438.43,52.33,443.39,47c10-10.7,20.84-20.73,33.4-28.37l2.34-1.45c.78-.48,1.61-.88,2.41-1.32l4.86-2.59,5-2.23c.84-.36,1.66-.76,2.52-1.1l2.58-1a71.93,71.93,0,0,1,10.61-3c1.79-.41,3.63-.59,5.45-.86s3.67-.33,5.51-.29a53.71,53.71,0,0,1,5.53.23,48.09,48.09,0,0,1,5.45.93,46.74,46.74,0,0,1,5.31,1.55,44.9,44.9,0,0,1,5,2.31c.8.46,1.65.83,2.41,1.36l2.3,1.54c.78.5,1.46,1.13,2.19,1.7a21.2,21.2,0,0,1,2.1,1.8,58,58,0,0,1,7.37,8.21,114.26,114.26,0,0,1,11.05,19c3.15,6.61,6.14,13.29,9,20,5.79,13.43,11.29,27,17.56,40.17,3.14,6.59,6.47,13.09,10.11,19.41a127.53,127.53,0,0,0,12.21,18.1,117.79,117.79,0,0,0,33.37,27.78A142.4,142.4,0,0,0,690,184.07a171.07,171.07,0,0,0,43.49,3.26,183.11,183.11,0,0,0,43-7.37A182.78,182.78,0,0,0,797,172.5a151,151,0,0,0,19.41-10c6.23-3.79,12.29-7.89,18.5-11.75a129.83,129.83,0,0,1,19.38-10.31,69.6,69.6,0,0,1,21.29-5.23,83.77,83.77,0,0,1,21.9,1.26c14.45,2.64,28.14,8,41.84,13.06,13.65,5.22,27.81,8.89,41.8,13.09,14.06,4,28.24,7.53,42.61,10.18,7.18,1.32,14.4,2.42,21.66,3.19,3.63.39,7.27.68,10.91,1l10.92.85c14.57,1,29.18,1.56,43.79,1.8,29.22.48,58.44-.43,87.64-1.76-29.19,1.41-58.42,2.4-87.65,2-14.61-.2-29.22-.73-43.81-1.69l-10.93-.81c-3.64-.34-7.28-.61-10.92-1-7.27-.74-14.51-1.83-21.7-3.13-14.39-2.62-28.59-6.2-42.66-10.14-14-4.19-28.18-7.85-41.86-13.06-13.71-5-27.38-10.39-41.75-13a83.47,83.47,0,0,0-21.74-1.23A68.78,68.78,0,0,0,854.57,141a129.51,129.51,0,0,0-19.27,10.27c-6.19,3.86-12.25,8-18.5,11.77a151.79,151.79,0,0,1-19.49,10.11,181.3,181.3,0,0,1-20.62,7.5,184.2,184.2,0,0,1-43.19,7.45,171.85,171.85,0,0,1-43.7-3.23,143.73,143.73,0,0,1-41.09-15.19,118.63,118.63,0,0,1-33.65-28,127,127,0,0,1-12.31-18.21c-3.66-6.35-7-12.86-10.16-19.47-6.3-13.22-11.82-26.77-17.62-40.19-2.89-6.71-5.86-13.38-9-20A112.39,112.39,0,0,0,555,25a56.79,56.79,0,0,0-7.24-8.09,22.91,22.91,0,0,0-2-1.76c-.72-.55-1.38-1.18-2.14-1.67L541.34,12A25.9,25.9,0,0,0,539,10.66a44.53,44.53,0,0,0-4.92-2.25,46.94,46.94,0,0,0-5.2-1.53A50.48,50.48,0,0,0,523.53,6c-1.8-.11-3.61-.3-5.42-.23s-3.62.16-5.42.29-3.61.43-5.38.84a72,72,0,0,0-10.48,2.91l-2.55,1c-.85.33-1.67.73-2.51,1.09l-5,2.21L482,16.58c-.8.44-1.62.83-2.39,1.3l-2.32,1.45C464.78,26.89,453.93,36.86,444,47.51c-4.95,5.37-9.68,10.93-14.33,16.57s-9.17,11.37-13.73,17.09c-9.1,11.44-18.6,22.59-28.64,33.23a630.52,630.52,0,0,1-64.52,59.38,657.1,657.1,0,0,1-71.69,50.47c-6.27,3.76-12.58,7.46-19,10.91l-9.66,5.18c-3.24,1.7-6.55,3.26-9.82,4.89l-4.92,2.43c-1.64.8-3.32,1.52-5,2.28l-10,4.51-10.14,4.16c-1.7.69-3.38,1.41-5.09,2.06l-5.14,1.89a376.44,376.44,0,0,1-84.94,21.09l-10.91,1.12c-.91.09-1.81.2-2.72.27l-2.74.15-5.47.3-5.48.3c-1.82.11-3.65,0-5.48.08-3.65,0-7.31.07-11,0A306.25,306.25,0,0,1,0,281.55Z"/><path class="cls-17" d="M0,292.05a280.33,280.33,0,0,0,44.29,4.77l11.15.09c3.71-.1,7.42-.29,11.14-.43s7.41-.52,11.11-.82l5.55-.49c1.85-.16,3.69-.47,5.53-.7A328.52,328.52,0,0,0,132.5,286l5.38-1.42,2.7-.72c.89-.25,1.78-.54,2.67-.8l10.65-3.27c3.53-1.15,7-2.42,10.54-3.62,1.75-.62,3.52-1.19,5.26-1.86l5.19-2,5.2-2,2.6-1,2.56-1.09,10.26-4.36c3.39-1.51,6.74-3.12,10.12-4.67,1.68-.8,3.37-1.55,5-2.37l5-2.51,5-2.51c1.66-.83,3.32-1.67,4.95-2.58l9.79-5.32c3.26-1.78,6.43-3.72,9.65-5.57l4.82-2.8,4.73-2.94c12.7-7.73,24.95-16.17,36.95-24.94l8.94-6.66,8.75-6.9c2.95-2.27,5.78-4.68,8.64-7.05s5.75-4.71,8.51-7.2a550.15,550.15,0,0,0,62.5-63.47l7.07-8.62,6.82-8.82c4.53-5.89,8.85-11.93,13.18-18,8.64-12.11,17.28-24.25,26.87-35.65,2.47-2.8,4.84-5.67,7.44-8.34,1.3-1.34,2.52-2.75,3.87-4l4-3.9c.65-.67,1.35-1.29,2.06-1.9l2.1-1.84c1.4-1.23,2.78-2.49,4.28-3.6L471,18.18c1.51-1.09,3.07-2.12,4.61-3.17l2.32-1.57L480.3,12c1.62-.93,3.21-1.92,4.86-2.79,3.37-1.6,6.66-3.37,10.17-4.69A63.09,63.09,0,0,1,517.2,0a42.84,42.84,0,0,1,11.16,1.23A38.53,38.53,0,0,1,538.8,5.4l1.23.69c.4.26.77.54,1.16.8.77.54,1.56,1.06,2.31,1.62a48.35,48.35,0,0,1,4.2,3.76c.65.67,1.32,1.33,2,2s1.24,1.4,1.81,2.14c1.19,1.45,2.29,3,3.34,4.52A116.1,116.1,0,0,1,565.12,40.8c2.88,6.88,5.58,13.81,8.19,20.78,5.22,13.94,10.1,28,15.76,41.74,2.83,6.87,5.85,13.66,9.17,20.3a139.41,139.41,0,0,0,11.25,19.15,111.57,111.57,0,0,0,14.57,16.73,123.76,123.76,0,0,0,17.45,13.73A140.83,140.83,0,0,0,682.07,191a168.78,168.78,0,0,0,88-.87,164,164,0,0,0,21-7.39c3.42-1.44,6.77-3,10.08-4.71s6.51-3.55,9.64-5.53c12.58-7.85,24.22-17.35,37.71-23.84.83-.43,1.68-.81,2.54-1.17l2.58-1.1c1.74-.67,3.5-1.29,5.27-1.88a65,65,0,0,1,10.93-2.38,78.3,78.3,0,0,1,22.31.46c14.77,2.33,28.74,7.83,42.64,13,13.87,5.39,28.2,9.35,42.5,13.44s28.74,7.61,43.37,10.23c7.31,1.32,14.66,2.38,22.06,3.12s14.81,1.22,22.22,1.69c14.84.85,29.71,1.26,44.57,1.36,29.74.2,59.46-.92,89.17-2.17-29.7,1.33-59.43,2.53-89.17,2.41-14.87-.06-29.74-.42-44.59-1.24-7.42-.45-14.84-.92-22.25-1.62s-14.77-1.77-22.1-3.07c-14.65-2.6-29.11-6.2-43.43-10.19s-28.66-8-42.55-13.41C920.59,151,906.65,145.49,892,143.2a77.36,77.36,0,0,0-22.12-.44,66.83,66.83,0,0,0-21.12,6.49c-13.39,6.45-25,15.94-37.62,23.84-3.15,2-6.39,3.83-9.69,5.57s-6.69,3.28-10.12,4.74a165.59,165.59,0,0,1-21.06,7.45,169.59,169.59,0,0,1-88.37,1A141.62,141.62,0,0,1,641,174a123.28,123.28,0,0,1-17.58-13.81,112.83,112.83,0,0,1-14.71-16.84A140.62,140.62,0,0,1,597.4,124c-3.34-6.66-6.37-13.47-9.21-20.36-5.69-13.77-10.59-27.82-15.81-41.75-2.6-7-5.29-13.89-8.16-20.74A115.29,115.29,0,0,0,554,21.48c-1-1.52-2.11-3-3.28-4.45-.57-.73-1.19-1.41-1.79-2.11s-1.28-1.32-1.92-2a46.15,46.15,0,0,0-4.11-3.68c-.73-.55-1.5-1.06-2.25-1.59-.38-.26-.75-.53-1.14-.78l-1.2-.67a37.07,37.07,0,0,0-10.19-4.09A41.8,41.8,0,0,0,517.21.92a62.26,62.26,0,0,0-21.56,4.46c-3.46,1.3-6.74,3.05-10.08,4.64-1.63.86-3.21,1.84-4.82,2.76l-2.4,1.4-2.3,1.55c-1.52,1.05-3.07,2.07-4.58,3.15l-4.39,3.41c-1.49,1.1-2.85,2.36-4.25,3.58l-2.09,1.83c-.7.6-1.4,1.22-2.05,1.88l-4,3.87c-1.34,1.28-2.57,2.68-3.85,4-2.59,2.65-5,5.51-7.43,8.29-9.57,11.37-18.21,23.48-26.86,35.58-4.33,6-8.67,12.09-13.21,18l-6.84,8.82-7.09,8.63a549.13,549.13,0,0,1-62.64,63.49c-2.77,2.49-5.68,4.81-8.53,7.2s-5.69,4.79-8.65,7.05l-8.77,6.9-8.95,6.66c-12,8.77-24.29,17.21-37,24.93L250.12,236l-4.82,2.8c-3.22,1.85-6.4,3.79-9.67,5.57l-9.81,5.32c-1.62.91-3.29,1.74-4.95,2.57l-5,2.51-5,2.5c-1.67.83-3.37,1.58-5.05,2.37-3.38,1.55-6.73,3.16-10.13,4.67l-10.27,4.36-2.57,1.09-2.61,1-5.2,2-5.21,2c-1.74.67-3.51,1.23-5.27,1.85-3.52,1.2-7,2.46-10.56,3.6l-10.67,3.23c-.9.27-1.78.55-2.68.8l-2.69.71-5.4,1.42a330.66,330.66,0,0,1-43.79,8.39c-1.85.23-3.68.53-5.53.69l-5.56.47c-3.71.29-7.4.73-11.12.79s-7.44.31-11.15.4l-11.15-.12A280.24,280.24,0,0,1,0,292.05Z"/><path class="cls-18" d="M0,288.77l10.79,1.58,2.7.39c.9.14,1.8.27,2.71.33l5.43.47,5.43.47,2.72.24c.9.09,1.82.07,2.72.11l10.91.34c1.81.1,3.63,0,5.45,0l5.45-.12,5.45-.12c1.82,0,3.63-.23,5.44-.34l10.88-.78L86.94,290c1.8-.23,3.61-.41,5.41-.67l5.38-.9c3.58-.62,7.18-1.14,10.74-1.85,7.11-1.52,14.26-2.87,21.28-4.78L135,280.5l2.65-.67c.87-.23,1.74-.5,2.61-.76L150.76,276l2.61-.77,2.59-.87,5.17-1.72c3.44-1.18,6.92-2.23,10.31-3.55l10.22-3.8c1.71-.61,3.39-1.31,5.07-2l5.05-2.06c6.77-2.65,13.37-5.71,20-8.64C225,246.45,238,240,250.74,233a563.73,563.73,0,0,0,72.85-47.85q17.25-13.35,33.35-28.09t30.95-30.73q7.41-8,14.46-16.32c4.71-5.54,9.24-11.23,13.75-16.94,9-11.43,17.94-22.94,27.71-33.75,1.21-1.37,2.49-2.67,3.73-4s2.48-2.66,3.8-3.93l3.89-3.84,4-3.69,2-1.84,2.11-1.74c1.41-1.15,2.79-2.35,4.23-3.47,2.95-2.14,5.81-4.42,8.93-6.33l2.29-1.49a26.49,26.49,0,0,1,2.34-1.42L486,24.84c.4-.22.8-.46,1.2-.67l1.24-.58,2.48-1.17c1.66-.76,3.27-1.61,5-2.25A70.37,70.37,0,0,1,517.11,15a55.25,55.25,0,0,1,11,.42,47.43,47.43,0,0,1,10.57,3.07A44.66,44.66,0,0,1,548,24.21,27.5,27.5,0,0,1,550.11,26c.67.62,1.38,1.21,2,1.88,1.3,1.3,2.51,2.68,3.68,4.08a99.77,99.77,0,0,1,11.73,18.49c3.29,6.5,6.36,13.11,9.32,19.76,5.93,13.31,11.48,26.77,17.85,39.83,3.18,6.53,6.57,13,10.29,19.2A115.31,115.31,0,0,0,617.57,147c2.36,2.75,4.91,5.33,7.52,7.84s5.38,4.85,8.26,7.05a121.66,121.66,0,0,0,18.27,11.75,144.28,144.28,0,0,0,20,8.59,160.22,160.22,0,0,0,21,5.57,177.81,177.81,0,0,0,43.33,2.9,187,187,0,0,0,42.83-7.32A185.64,185.64,0,0,0,799.23,176c3.34-1.42,6.63-3,9.86-4.61,1.61-.83,3.19-1.72,4.79-2.59s3.14-1.8,4.7-2.75c6.22-3.74,12.3-7.74,18.55-11.49a120,120,0,0,1,19.53-9.79A66,66,0,0,1,878,140.28a83.15,83.15,0,0,1,21.72,2.23c14.26,3.2,27.7,9,41.22,14.32,6.76,2.68,13.58,5.15,20.52,7.34s13.85,4.44,20.81,6.54c13.92,4.2,28,8,42.24,10.78q10.7,2.12,21.53,3.4c3.61.4,7.23.75,10.85,1.11s7.24.66,10.87.92c14.5,1.1,29,1.74,43.57,2,29.09.57,58.18-.35,87.23-1.9-29,1.63-58.14,2.63-87.23,2.15-14.55-.24-29.09-.85-43.6-1.91-3.63-.25-7.25-.59-10.88-.88s-7.24-.69-10.86-1.08q-10.85-1.24-21.57-3.35c-14.29-2.78-28.37-6.56-42.3-10.74q-10.46-3.15-20.83-6.53c-6.94-2.17-13.8-4.65-20.56-7.33-13.54-5.29-27-11.09-41.15-14.25a82.43,82.43,0,0,0-21.56-2.2,65.71,65.71,0,0,0-21.16,4.42,119.92,119.92,0,0,0-19.41,9.76c-6.23,3.74-12.3,7.75-18.54,11.51-1.55.95-3.14,1.84-4.71,2.76s-3.2,1.77-4.81,2.61q-4.87,2.49-9.9,4.64A185.17,185.17,0,0,1,779,184.05a187.82,187.82,0,0,1-43,7.39,178.49,178.49,0,0,1-43.53-2.87A160.81,160.81,0,0,1,671.3,183a144.69,144.69,0,0,1-20.09-8.63,123.06,123.06,0,0,1-18.41-11.81c-2.9-2.21-5.64-4.63-8.34-7.09s-5.2-5.13-7.58-7.91a117.1,117.1,0,0,1-12.71-17.8c-3.74-6.27-7.15-12.72-10.35-19.27-6.39-13.09-12-26.56-17.89-39.84-2.95-6.64-6-13.25-9.27-19.73a100.52,100.52,0,0,0-11.6-18.32c-1.16-1.38-2.35-2.74-3.62-4-.62-.67-1.31-1.24-2-1.85a26.37,26.37,0,0,0-2-1.78,44,44,0,0,0-9.16-5.64,45.84,45.84,0,0,0-10.33-3,53.24,53.24,0,0,0-10.78-.42,69.16,69.16,0,0,0-21,5.13c-1.7.62-3.31,1.47-5,2.22l-2.45,1.16-1.23.58c-.41.21-.8.44-1.19.66l-4.74,2.65a24.7,24.7,0,0,0-2.32,1.41L477,31.16c-3.1,1.9-6,4.16-8.88,6.29-1.43,1.11-2.81,2.29-4.21,3.44l-2.1,1.73-2,1.82-4,3.67-3.88,3.83c-1.31,1.25-2.54,2.58-3.79,3.9s-2.51,2.63-3.72,4c-9.75,10.78-18.69,22.27-27.7,33.69-4.52,5.71-9.06,11.4-13.78,16.95s-9.55,11-14.5,16.33q-14.85,16-31,30.74T324,185.62a563.91,563.91,0,0,1-73,47.84c-12.75,7-25.8,13.49-39,19.61-6.66,2.93-13.26,6-20,8.64l-5.06,2.06c-1.68.68-3.36,1.39-5.08,2l-10.24,3.78c-3.39,1.32-6.88,2.36-10.33,3.53l-5.18,1.71-2.59.86-2.62.77-10.48,3c-.87.24-1.74.52-2.62.75l-2.65.66-5.29,1.32c-7,1.9-14.19,3.22-21.31,4.73-3.57.7-7.17,1.21-10.76,1.82l-5.39.88c-1.79.26-3.61.44-5.41.66l-10.84,1.27-10.89.76c-1.81.1-3.62.31-5.44.31l-5.46.11-5.45.1c-1.82.05-3.64.09-5.46,0l-10.9-.37c-.91,0-1.82,0-2.73-.12l-2.71-.24-5.44-.49-5.43-.48c-.91-.06-1.81-.2-2.7-.34l-2.7-.4Z"/><path class="cls-19" d="M.05,285.49l10.6,1.33c1.77.2,3.53.5,5.31.62l5.33.36,5.32.37c1.78.11,3.55.29,5.34.27l10.68.15a322.61,322.61,0,0,0,42.58-3l5.29-.68c1.77-.23,3.51-.58,5.27-.87l10.53-1.8,10.45-2.2L122,279l5.18-1.29,10.36-2.6,10.27-2.94,5.13-1.47L158,269l10.17-3.28A680.4,680.4,0,0,0,247,233a578,578,0,0,0,73.79-42.9c11.76-8,23.13-16.61,34.15-25.62S376.6,146,386.84,136.07q7.67-7.42,15-15.18c4.9-5.16,9.62-10.49,14.32-15.84,9.38-10.73,18.61-21.6,28.58-31.81,1.23-1.3,2.5-2.55,3.78-3.79s2.53-2.52,3.84-3.73c2.63-2.41,5.22-4.87,8-7.14s5.53-4.51,8.35-6.7c1.41-1.1,2.92-2.07,4.37-3.11s2.91-2.07,4.45-3L482.08,43c1.55-.9,3.14-1.71,4.71-2.57l2.36-1.27c.79-.41,1.62-.76,2.43-1.14l4.87-2.23a88.73,88.73,0,0,1,10.13-3.55l1.29-.37,1.31-.31c.87-.2,1.74-.41,2.62-.6,1.77-.3,3.52-.67,5.31-.83s3.57-.32,5.37-.41c.89,0,1.79,0,2.69,0l1.35,0,1.34.12a43.69,43.69,0,0,1,10.56,2.06,41.71,41.71,0,0,1,9.74,4.59L550.41,38c.72.53,1.41,1.12,2.11,1.67a50.79,50.79,0,0,1,4,3.59,92,92,0,0,1,13.2,16.89c3.76,6.09,7.21,12.33,10.58,18.62,6.71,12.58,13,25.37,20.16,37.67,3.58,6.15,7.37,12.17,11.51,18,2,2.91,4.25,5.67,6.56,8.37s4.79,5.24,7.41,7.63,5.33,4.68,8.11,6.87,5.74,4.19,8.76,6.05a127.47,127.47,0,0,0,18.9,9.76,160,160,0,0,0,41.09,10.82,195.91,195.91,0,0,0,42.55.79,207.86,207.86,0,0,0,41.8-8.08,206.72,206.72,0,0,0,20.06-7.24,180.27,180.27,0,0,0,19.07-9.52c6.2-3.49,12.33-7.13,18.67-10.42,3.16-1.66,6.4-3.16,9.68-4.58,1.67-.63,3.31-1.33,5-1.91s3.38-1.18,5.12-1.6A67.11,67.11,0,0,1,886,139a74.66,74.66,0,0,1,10.64,1.29c1.77.26,3.5.73,5.25,1.09s3.46.87,5.17,1.36c13.75,3.94,26.73,10,39.87,15.4,3.3,1.36,6.6,2.69,9.93,3.92s6.7,2.41,10.06,3.59c6.72,2.35,13.46,4.66,20.23,6.86a416.1,416.1,0,0,0,41.15,11.33c7,1.5,14,2.75,21,3.67s14.13,1.73,21.22,2.38q21.27,2,42.63,2.67c28.47.89,57,.17,85.41-1.68-28.42,1.93-56.93,2.73-85.41,1.92-14.24-.42-28.47-1.24-42.66-2.54-7.1-.64-14.18-1.44-21.25-2.32s-14.1-2.14-21.07-3.62A413.79,413.79,0,0,1,987,173c-6.78-2.19-13.52-4.49-20.25-6.84-3.36-1.18-6.72-2.34-10.07-3.58s-6.65-2.57-9.95-3.92c-13.16-5.43-26.13-11.43-39.82-15.34-1.7-.49-3.43-.92-5.15-1.35s-3.46-.82-5.21-1.08A73.68,73.68,0,0,0,886,139.61a66.06,66.06,0,0,0-21,2.38c-1.73.41-3.38,1.06-5.07,1.59s-3.32,1.27-5,1.91c-3.26,1.41-6.48,2.91-9.63,4.56-6.31,3.28-12.43,6.92-18.64,10.43a182.6,182.6,0,0,1-19.13,9.58,209.79,209.79,0,0,1-20.12,7.28,208.73,208.73,0,0,1-42,8.15,196.94,196.94,0,0,1-42.73-.75,161.06,161.06,0,0,1-41.32-10.84,127.82,127.82,0,0,1-19-9.81c-3-1.87-6-4-8.83-6.09s-5.59-4.46-8.19-6.92-5.09-5-7.48-7.69a105.44,105.44,0,0,1-6.62-8.44c-4.17-5.8-8-11.85-11.58-18-7.19-12.34-13.5-25.13-20.21-37.69-3.36-6.28-6.8-12.52-10.52-18.57a90.82,90.82,0,0,0-13-16.72,47,47,0,0,0-3.94-3.54c-.69-.55-1.37-1.12-2.07-1.65l-2.2-1.47a40.68,40.68,0,0,0-9.52-4.5,42.86,42.86,0,0,0-10.34-2l-1.32-.12-1.32,0c-.89,0-1.77-.05-2.65,0-1.76.09-3.53.15-5.28.4s-3.5.52-5.24.81l-2.59.59-1.29.31-1.28.36a85,85,0,0,0-10,3.51L492,38.8c-.81.37-1.62.72-2.41,1.12l-2.35,1.26c-1.56.85-3.14,1.66-4.67,2.55L478,46.53c-1.54.89-3,1.94-4.43,2.95s-2.94,2-4.34,3.09c-2.81,2.18-5.65,4.31-8.32,6.66s-5.33,4.7-8,7.1c-1.3,1.21-2.55,2.48-3.83,3.71s-2.54,2.48-3.77,3.78c-10,10.17-19.19,21-28.57,31.75-4.71,5.35-9.45,10.68-14.36,15.85s-9.93,10.23-15.06,15.19Q372,151.45,355.38,165c-11.05,9-22.44,17.6-34.23,25.62a576.82,576.82,0,0,1-73.91,42.87,675.85,675.85,0,0,1-78.93,32.73l-10.18,3.25-5.1,1.62-5.14,1.46-10.28,2.91L127.24,278l-5.19,1.28-5.23,1.09-10.47,2.17-10.54,1.77c-1.76.28-3.5.63-5.27.86l-5.3.66a321.48,321.48,0,0,1-42.61,2.86l-10.69-.19c-1.78,0-3.55-.17-5.33-.29l-5.33-.38L16,287.48c-1.77-.12-3.53-.42-5.3-.63Z"/><path class="cls-20" d="M.08,282.21,10.5,283.3c1.73.17,3.47.41,5.21.51l5.23.26,5.23.26,2.61.13,1.31.06H31.4l10.47,0c3.49.07,7-.21,10.46-.37l5.23-.26,2.62-.14c.87-.06,1.73-.16,2.6-.23l10.42-1,2.61-.25,2.59-.36,5.19-.72c27.68-3.73,54.84-10.67,81.46-19,13.29-4.29,26.5-8.82,39.53-13.84,6.54-2.42,13-5.06,19.5-7.64,3.24-1.29,6.45-2.67,9.67-4s6.46-2.67,9.65-4.06A618.6,618.6,0,0,0,318,194.72a491.47,491.47,0,0,0,67.74-49.08q15.86-13.68,30.44-28.73c9.75-10,19.28-20.23,29.46-29.83a209.47,209.47,0,0,1,32.85-26c3-1.74,6-3.64,9.14-5.17,1.57-.79,3.1-1.65,4.69-2.38l4.8-2.13a83.52,83.52,0,0,1,20.11-6.07,56.14,56.14,0,0,1,21,.42,45.31,45.31,0,0,1,18.84,9.2A90,90,0,0,1,571.74,70c4.28,5.57,8.12,11.41,11.94,17.27,7.58,11.75,14.69,23.79,22.69,35.22A187.93,187.93,0,0,0,619.19,139a91.43,91.43,0,0,0,7.31,7.42c1.31,1.16,2.54,2.38,3.89,3.47l4.13,3.2c.69.52,1.36,1.08,2.07,1.57l2.18,1.44,4.36,2.87,4.54,2.57c1.52.85,3,1.73,4.61,2.43l4.71,2.25,1.18.56,1.22.48,2.42,1c1.62.64,3.21,1.34,4.86,1.91l5,1.65,2.48.83,2.51.7,5,1.37c1.68.48,3.4.77,5.1,1.16s3.4.76,5.11,1.08l5.15.84c1.72.28,3.44.59,5.17.76,3.46.37,6.92.88,10.4,1a228.57,228.57,0,0,0,82.63-9.48q10-3.06,19.71-7c6.45-2.64,12.68-5.78,18.89-9s12.4-6.44,18.83-9.22a91.46,91.46,0,0,1,20-6.37,73.28,73.28,0,0,1,10.46-1.07,70.67,70.67,0,0,1,10.49.6,110.41,110.41,0,0,1,20.37,5c13.26,4.53,25.81,10.75,38.61,16.29,6.39,2.82,12.92,5.26,19.46,7.73s13.08,4.87,19.68,7.16a395.19,395.19,0,0,0,40.12,11.89c13.58,3.26,27.44,5.08,41.3,6.71s27.8,2.65,41.75,3.27a696.11,696.11,0,0,0,83.72-1.47,698.35,698.35,0,0,1-83.73,1.72q-20.92-.87-41.78-3.16c-13.87-1.59-27.76-3.36-41.37-6.59a395.53,395.53,0,0,1-40.19-11.86c-6.6-2.29-13.16-4.69-19.7-7.15s-13.08-4.9-19.49-7.71c-12.82-5.54-25.37-11.74-38.58-16.24a109.85,109.85,0,0,0-20.25-5,69.61,69.61,0,0,0-10.4-.59,74.87,74.87,0,0,0-10.35,1.07,90.85,90.85,0,0,0-19.84,6.35c-6.39,2.77-12.57,6-18.78,9.22s-12.46,6.36-18.94,9-13.08,5-19.76,7a229.21,229.21,0,0,1-82.91,9.6c-3.5-.16-7-.67-10.45-1-1.74-.16-3.46-.47-5.19-.75l-5.18-.84c-1.72-.32-3.42-.72-5.14-1.08s-3.43-.68-5.12-1.16l-5.06-1.38-2.54-.69-2.49-.83-5-1.66c-1.66-.57-3.26-1.28-4.89-1.91l-2.44-1-1.22-.49-1.19-.56-4.75-2.25c-1.6-.71-3.12-1.59-4.64-2.45l-4.59-2.58-4.39-2.89-2.19-1.45c-.72-.5-1.4-1.06-2.1-1.59l-4.16-3.21c-1.37-1.11-2.62-2.34-3.93-3.5a93.27,93.27,0,0,1-7.39-7.49A187.58,187.58,0,0,1,605.58,123c-8-11.46-15.17-23.5-22.74-35.23C579,82,575.2,76.11,571,70.59A88.53,88.53,0,0,0,556.5,55.66a44.24,44.24,0,0,0-18.45-9,54.89,54.89,0,0,0-20.64-.42,82.71,82.71,0,0,0-19.9,6l-4.77,2.11c-1.58.73-3.1,1.58-4.66,2.36C485,58.17,482,60.05,479,61.79a208.82,208.82,0,0,0-32.74,25.89c-10.16,9.57-19.7,19.78-29.46,29.78s-19.93,19.62-30.53,28.74a490.6,490.6,0,0,1-67.88,49.09,619.06,619.06,0,0,1-74.75,37.83c-3.2,1.39-6.43,2.71-9.66,4s-6.44,2.71-9.69,4c-6.49,2.58-13,5.21-19.51,7.63-13,5-26.27,9.54-39.57,13.8-26.67,8.28-53.86,15.15-81.58,18.81l-5.19.7-2.59.35-2.61.25-10.43,1c-.87.07-1.74.17-2.61.23l-2.62.12-5.23.25c-3.49.15-7,.42-10.47.34H30.09l-1.31-.07-2.62-.13-5.23-.28-5.23-.27c-1.74-.11-3.47-.35-5.21-.53Z"/><path class="cls-21" d="M.11,278.93a325.31,325.31,0,0,0,82-2.2c13.59-1.85,27-4.66,40.39-7.66,6.66-1.65,13.34-3.17,19.94-5,3.3-.9,6.62-1.76,9.91-2.71l9.87-2.9c3.29-.94,6.56-2,9.83-3l9.81-3.09c6.5-2.18,13-4.26,19.49-6.55,13-4.43,25.84-9.17,38.7-13.92,25.69-9.58,51-20.24,75.34-32.87a470.38,470.38,0,0,0,69.32-44c10.88-8.34,21.44-17.1,31.52-26.38s20-18.81,30.36-27.79c5.15-4.54,10.51-8.85,16-13,2.77-2,5.52-4.1,8.39-6s5.76-3.74,8.68-5.56A151,151,0,0,1,498,66.85a94.23,94.23,0,0,1,9.64-3.68c1.63-.56,3.3-1,5-1.46s3.34-.84,5-1.13a63.1,63.1,0,0,1,20.61-.77,52.2,52.2,0,0,1,10.07,2.49,49.89,49.89,0,0,1,9.27,4.64A94.05,94.05,0,0,1,573.53,80c2.43,2.46,4.68,5.07,6.89,7.69s4.38,5.29,6.51,8c8.52,10.77,16.51,21.93,25.43,32.33,1.11,1.3,2.23,2.59,3.38,3.86s2.3,2.53,3.48,3.77a101,101,0,0,0,7.33,7.16l1.89,1.72c.32.28.63.58,1,.85l1,.78,4.06,3.12,1,.78,1.07.7,2.14,1.4,2.15,1.4,1.07.7,1.12.62c3,1.65,5.92,3.41,9.06,4.78,1.55.71,3.07,1.5,4.65,2.15l4.76,1.9c.79.31,1.58.64,2.38.94l2.44.8,4.86,1.62c1.64.5,3.29.92,4.94,1.38s3.28,1,5,1.28a203.21,203.21,0,0,0,40.66,5.07c1.71.09,3.42.06,5.14.06H732c3.42-.08,6.84-.26,10.26-.4s6.83-.48,10.23-.85l10.19-1.27c6.8-.8,13.53-2.11,20.22-3.53s13.33-3.17,19.89-5.12,13.06-4.14,19.43-6.64,12.58-5.4,18.82-8.26,12.5-5.67,19-8a85.78,85.78,0,0,1,20.07-4.62,67.87,67.87,0,0,1,20.55,1.22,124.12,124.12,0,0,1,19.69,6.06c12.8,5,25,11.4,37.44,17.07,6.23,2.84,12.6,5.38,19,8s12.73,5.08,19.15,7.48a381.27,381.27,0,0,0,39.15,12.47c6.65,1.67,13.33,3.16,20.1,4.27l5.06.87,5.08.78c3.39.55,6.79,1,10.18,1.45q20.38,2.7,40.94,3.86a569.32,569.32,0,0,0,82.18-1.28,571,571,0,0,1-82.2,1.53q-20.54-1.09-41-3.74c-3.4-.46-6.8-.89-10.18-1.43l-5.09-.77-5.07-.85c-6.78-1.09-13.49-2.56-20.15-4.22a376.71,376.71,0,0,1-39.22-12.44c-6.43-2.39-12.81-4.9-19.17-7.46s-12.73-5.13-19-8c-12.5-5.67-24.66-12.05-37.43-17a124.47,124.47,0,0,0-19.59-6,67,67,0,0,0-20.36-1.18,84.91,84.91,0,0,0-19.91,4.6c-6.44,2.29-12.69,5.11-18.92,8s-12.44,5.78-18.84,8.29-12.91,4.69-19.48,6.67-13.23,3.69-19.94,5.16-13.46,2.75-20.28,3.57l-10.22,1.28c-3.41.37-6.84.57-10.26.86s-6.86.33-10.3.41l-5.15,0c-1.71,0-3.43,0-5.15-.06a203.68,203.68,0,0,1-40.84-5.05c-1.69-.32-3.32-.86-5-1.28s-3.32-.88-5-1.38L666,166.32l-2.45-.81c-.81-.3-1.6-.63-2.4-.95l-4.8-1.9c-1.59-.66-3.12-1.45-4.68-2.16-3.16-1.38-6.12-3.14-9.14-4.8l-1.13-.63-1.08-.71L638.2,153,636,151.54l-1.08-.71-1-.78-4.1-3.14-1-.79c-.33-.28-.64-.57-1-.86l-1.92-1.73a102.65,102.65,0,0,1-7.39-7.21q-1.78-1.86-3.5-3.79c-1.16-1.27-2.28-2.57-3.4-3.87-9-10.43-17-21.59-25.48-32.34q-3.18-4-6.48-8c-2.21-2.62-4.44-5.21-6.83-7.64a93.49,93.49,0,0,0-15.78-13A48.79,48.79,0,0,0,548,63.19a50.71,50.71,0,0,0-9.87-2.45,62.09,62.09,0,0,0-20.3.74c-1.69.28-3.33.73-5,1.11s-3.3.89-4.91,1.44a91.38,91.38,0,0,0-9.57,3.64A150.65,150.65,0,0,0,480.08,77c-2.91,1.8-5.85,3.56-8.65,5.53s-5.6,3.93-8.36,6c-5.45,4.14-10.79,8.43-15.94,13-10.37,9-20.22,18.51-30.37,27.75s-20.69,18.06-31.6,26.39a471,471,0,0,1-69.47,44c-24.38,12.62-49.73,23.26-75.43,32.82-12.88,4.74-25.75,9.47-38.73,13.89-6.47,2.28-13,4.36-19.52,6.53l-9.81,3.08c-3.27,1-6.54,2.07-9.84,3l-9.88,2.87c-3.3.94-6.62,1.79-9.93,2.69-6.61,1.84-13.3,3.35-20,5-13.38,3-26.83,5.73-40.43,7.54A325.64,325.64,0,0,1,.11,278.93Z"/><path class="cls-22" d="M.13,275.65l10.1.64c1.68.1,3.36.23,5,.3l5.06.06c3.37,0,6.74.1,10.11.09l10.11-.37c1.68-.08,3.37-.09,5-.22l5-.4c3.36-.29,6.73-.51,10.08-.84l10-1.21c1.68-.21,3.36-.37,5-.63l5-.77c3.33-.53,6.67-1,10-1.58l9.94-1.86c1.66-.32,3.32-.61,5-.95l4.94-1.06,9.89-2.14c13.12-3.12,26.2-6.39,39.16-10.13,26-7.28,51.64-15.64,77.35-23.82s51.21-17,75.9-27.89A451.29,451.29,0,0,0,383.73,164c11.18-7.53,22.11-15.45,32.55-24s20.68-17.34,31.27-25.72c5.27-4.22,10.7-8.25,16.2-12.17l4.19-2.84,2.1-1.42,2.15-1.36,4.29-2.7,4.38-2.55c.73-.42,1.45-.86,2.2-1.26l2.24-1.19,4.49-2.36,4.58-2.16c.77-.36,1.53-.74,2.3-1.08l2.34-1a104.84,104.84,0,0,1,19.26-6.39A72.34,72.34,0,0,1,538.5,74.2l1.27.08,1.26.15c.85.11,1.69.19,2.53.33,1.67.31,3.35.59,5,1.06s3.26,1,4.88,1.52,3.17,1.25,4.67,2.06a105.86,105.86,0,0,1,17.07,11,101.44,101.44,0,0,1,7.65,6.69c2.46,2.31,4.86,4.7,7.24,7.09,9.49,9.62,18.46,19.72,28.29,28.93A145.38,145.38,0,0,0,633.83,146a107.08,107.08,0,0,0,17.53,9.87c12.24,5.59,25.37,9,38.64,11.19a224,224,0,0,0,40.24,2.73,313.56,313.56,0,0,0,79.68-12.22c6.47-1.87,12.91-3.88,19.23-6.2s12.53-4.94,18.8-7.45a176,176,0,0,1,19.14-6.65,95.77,95.77,0,0,1,9.92-2.16c1.68-.21,3.35-.46,5-.59l2.54-.16,1.27-.08h1.27A68.69,68.69,0,0,1,907.19,137a144,144,0,0,1,19.06,6.9c12.38,5.42,24.2,12,36.37,17.77,6.08,2.9,12.28,5.57,18.45,8.27s12.4,5.3,18.67,7.8A369,369,0,0,0,1038,190.85c6.5,1.79,13,3.36,19.68,4.6s13.26,2.46,19.92,3.5q20,3.08,40.2,4.44a481.56,481.56,0,0,0,80.82-1.15,479.67,479.67,0,0,1-80.84,1.39q-20.19-1.32-40.23-4.32c-6.67-1-13.33-2.13-20-3.44s-13.22-2.78-19.73-4.55a364.54,364.54,0,0,1-38.3-13.08q-9.4-3.75-18.69-7.79c-6.18-2.7-12.38-5.36-18.48-8.26-12.19-5.8-24-12.33-36.37-17.72a142.77,142.77,0,0,0-19-6.85A67.93,67.93,0,0,0,887.13,135h-1.25l-1.26.07-2.51.16c-1.67.14-3.34.39-5,.6a91.77,91.77,0,0,0-9.84,2.15,174.8,174.8,0,0,0-19.06,6.65c-6.25,2.51-12.47,5.13-18.81,7.47s-12.79,4.36-19.28,6.24a314.42,314.42,0,0,1-79.86,12.33,225.77,225.77,0,0,1-40.4-2.69c-13.33-2.17-26.54-5.6-38.88-11.23a106.9,106.9,0,0,1-17.68-9.93,147.08,147.08,0,0,1-15.61-13c-9.88-9.25-18.87-19.34-28.34-28.93-2.37-2.39-4.76-4.77-7.21-7.07s-4.93-4.57-7.57-6.65a104.69,104.69,0,0,0-16.9-10.89c-1.47-.8-3-1.38-4.58-2s-3.14-1.12-4.78-1.49-3.25-.74-4.9-1c-.82-.14-1.65-.22-2.48-.33l-1.25-.15-1.25-.08a71.39,71.39,0,0,0-20,1.61,104.26,104.26,0,0,0-19.1,6.31L497,84c-.77.34-1.52.72-2.29,1.07l-4.56,2.15-4.47,2.35-2.23,1.17c-.74.41-1.46.84-2.19,1.26l-4.37,2.53-4.27,2.69-2.14,1.35L468.42,100l-4.18,2.83c-5.49,3.9-10.91,7.92-16.18,12.12-10.58,8.35-20.77,17.2-31.28,25.68s-21.43,16.45-32.63,24a452.78,452.78,0,0,1-70.95,38.88c-24.74,10.84-50.28,19.68-76,27.83s-51.39,16.5-77.39,23.74c-13,3.7-26.08,6.93-39.21,10l-9.9,2.11-5,1.06c-1.65.33-3.31.62-5,.93l-10,1.83c-3.33.55-6.67,1-10,1.55l-5,.76c-1.66.25-3.35.41-5,.61l-10,1.18c-3.36.32-6.72.53-10.09.81l-5,.39c-1.68.12-3.37.13-5.06.2l-10.11.34c-3.37,0-6.74-.08-10.11-.12l-5.06-.07c-1.69-.08-3.37-.22-5-.32Z"/><path class="cls-23" d="M.16,272.37l10,.42,5,.2,5,0,10-.09,10-.54,5-.28,5-.47,9.93-.95,9.89-1.3,4.94-.65,4.92-.81,9.84-1.62,9.79-1.88,4.9-.94c1.63-.33,3.25-.7,4.87-1l9.75-2.12c13-3,25.86-6.18,38.69-9.65,25.7-6.84,51.22-14.35,76.92-21.24s51.36-13.9,76.36-23q18.76-6.76,36.85-15.18c12-5.63,23.81-11.83,35.3-18.5q8.63-5,17-10.39c2.79-1.79,5.57-3.62,8.33-5.46s5.49-3.75,8.18-5.7c10.83-7.7,21.36-15.83,32.18-23.59a311.93,311.93,0,0,1,33.65-21.5c2.9-1.63,5.91-3.06,8.89-4.56,1.49-.74,3-1.39,4.54-2.08s3-1.41,4.59-2c3.09-1.24,6.17-2.51,9.33-3.59s6.36-2,9.62-2.77c1.62-.42,3.27-.69,4.9-1s3.3-.58,5-.74a74.49,74.49,0,0,1,10-.58,65.79,65.79,0,0,1,10,.9,57.18,57.18,0,0,1,9.7,2.61C562,93.47,565,94.89,568,96.36s5.94,3,8.81,4.75a95,95,0,0,1,8.34,5.55c2.7,2,5.33,4,8,6,10.45,8.25,20.43,17.06,31.14,24.91,2.69,1.94,5.4,3.87,8.18,5.68.69.45,1.38.92,2.08,1.35l2.14,1.26c1.44.81,2.82,1.73,4.3,2.47l4.45,2.21,1.11.56,1.14.48,2.29,1c3,1.36,6.18,2.39,9.29,3.51a181.67,181.67,0,0,0,38.94,7.8,268.26,268.26,0,0,0,39.79.65,386.18,386.18,0,0,0,78.51-12.87c6.42-1.72,12.81-3.56,19.1-5.67s12.54-4.42,18.85-6.54a155.35,155.35,0,0,1,19.24-5.37,79.76,79.76,0,0,1,19.92-1.49,71.85,71.85,0,0,1,19.57,4,157.14,157.14,0,0,1,18.46,7.62c12,5.74,23.53,12.45,35.4,18.43,23.88,11.63,48.11,22.83,73.58,30.51l4.78,1.4,4.81,1.3c3.22.83,6.47,1.54,9.71,2.27,6.48,1.46,13,2.71,19.55,3.87q19.65,3.42,39.55,5a412.42,412.42,0,0,0,79.65-1,412.63,412.63,0,0,1-79.67,1.22c-13.26-1-26.47-2.65-39.59-4.9-6.55-1.14-13.09-2.37-19.59-3.81-3.24-.72-6.49-1.42-9.72-2.25L1045.2,195l-4.8-1.38a357.93,357.93,0,0,1-37.46-13.75c-12.24-5.23-24.29-10.85-36.24-16.71s-23.41-12.67-35.4-18.39a156.37,156.37,0,0,0-18.4-7.57,71.25,71.25,0,0,0-19.41-3.92,78.45,78.45,0,0,0-19.75,1.49,156,156,0,0,0-19.15,5.37c-6.29,2.13-12.52,4.45-18.84,6.56s-12.71,4-19.13,5.71a387.41,387.41,0,0,1-78.67,13,269.91,269.91,0,0,1-39.91-.61A182,182,0,0,1,658.9,157c-3.14-1.12-6.32-2.16-9.37-3.53l-2.31-1-1.15-.48-1.12-.56-4.49-2.23c-1.49-.75-2.89-1.67-4.34-2.49L634,145.45c-.72-.44-1.4-.91-2.1-1.36-2.8-1.81-5.52-3.75-8.22-5.69-10.77-7.88-20.77-16.68-31.2-24.91-2.62-2-5.24-4.08-7.92-6a94.86,94.86,0,0,0-8.26-5.51c-2.84-1.69-5.77-3.25-8.74-4.73s-6-2.89-9-4.08A57.07,57.07,0,0,0,549,90.57a63.84,63.84,0,0,0-9.85-.89,72.7,72.7,0,0,0-9.89.56c-1.64.15-3.27.48-4.9.72s-3.25.61-4.86,1c-3.23.73-6.39,1.72-9.54,2.74s-6.2,2.32-9.28,3.56c-1.55.58-3.05,1.31-4.57,2s-3,1.33-4.52,2.07c-3,1.49-6,2.9-8.86,4.53a312.56,312.56,0,0,0-33.58,21.4c-10.81,7.74-21.35,15.86-32.2,23.57-2.7,1.94-5.47,3.8-8.2,5.69s-5.56,3.67-8.36,5.47q-8.41,5.37-17,10.38-17.28,10-35.38,18.49T311,207c-25.05,9-50.74,16.07-76.44,22.89s-51.22,14.35-76.94,21.15c-12.85,3.43-25.78,6.58-38.74,9.54l-9.76,2.08c-1.63.35-3.25.71-4.88,1l-4.9.93-9.8,1.85-9.85,1.59-4.93.79-5,.64-9.89,1.27-9.93.92-5,.46-5,.26-10,.51-10,.06-5,0-5-.22Z"/><path class="cls-24" d="M.19,269.09l9.85.21,4.93.1,4.92-.14,9.86-.27,9.83-.7,4.91-.35,4.9-.54,9.8-1.07,9.75-1.4,4.88-.7c1.62-.25,3.24-.55,4.86-.82,25.92-4.36,51.51-10.44,77-16.91s50.9-13.18,76.59-18.78,51.46-10.83,76.73-18.07c12.62-3.61,25.11-7.72,37.35-12.49s24.25-10.09,36-15.94,23.3-12.16,34.45-19.1,22-14.31,33.08-21.44a384.77,384.77,0,0,1,34.06-19.92c5.85-3,11.87-5.7,18-8.22,3.08-1.17,6.12-2.43,9.25-3.47s6.28-2,9.49-2.8a94.84,94.84,0,0,1,19.56-2.88,67.63,67.63,0,0,1,19.67,2.1c3.21.87,6.3,2,9.38,3.13s6.17,2.32,9.2,3.62A148.73,148.73,0,0,1,596,121.4c11.34,6.67,22.3,13.95,33.82,20.24,2.87,1.57,5.78,3.09,8.73,4.53,1.46.75,3,1.34,4.47,2l2.24,1c.75.33,1.53.58,2.29.87l4.61,1.7,4.69,1.45c1.56.52,3.15.91,4.73,1.31s3.17.84,4.77,1.18a216.77,216.77,0,0,0,39,4.7,337.46,337.46,0,0,0,39.33-1.13,510.34,510.34,0,0,0,77.61-13.2c6.37-1.57,12.73-3.21,19-5.08s12.57-3.83,18.91-5.58a138.18,138.18,0,0,1,19.31-4.11,80.08,80.08,0,0,1,19.75-.22,77.82,77.82,0,0,1,19.09,5,183.86,183.86,0,0,1,17.94,8.23c11.69,6,22.91,12.91,34.5,19.1,23.29,12.11,47,23.79,71.94,32q4.68,1.53,9.42,2.89c3.15.91,6.35,1.66,9.53,2.48s6.39,1.49,9.59,2.25,6.43,1.33,9.65,2q19.33,3.75,39,5.62a360.59,360.59,0,0,0,78.68-.81,360.15,360.15,0,0,1-78.7,1c-13.09-1.21-26.13-3-39-5.5-3.22-.66-6.45-1.28-9.66-2s-6.43-1.4-9.61-2.21-6.39-1.56-9.56-2.46-6.31-1.85-9.44-2.87c-25-8.15-48.74-19.82-72.06-31.92-11.61-6.18-22.84-13-34.51-19.06a185.91,185.91,0,0,0-17.89-8.18,77,77,0,0,0-18.94-5,79.69,79.69,0,0,0-19.58.24,137.42,137.42,0,0,0-19.21,4.11c-6.33,1.75-12.59,3.74-18.9,5.6s-12.67,3.53-19,5.11a511.62,511.62,0,0,1-77.71,13.3,341.53,341.53,0,0,1-39.44,1.18,218.93,218.93,0,0,1-39.18-4.68c-1.61-.35-3.2-.8-4.8-1.19s-3.2-.79-4.76-1.31l-4.73-1.45-4.64-1.71c-.77-.3-1.56-.55-2.32-.88l-2.26-1c-1.5-.68-3-1.29-4.51-2q-4.44-2.16-8.77-4.54c-11.57-6.3-22.55-13.58-33.87-20.22a150,150,0,0,0-17.39-9.13c-3-1.29-6.07-2.47-9.15-3.6s-6.17-2.26-9.3-3.12a66.22,66.22,0,0,0-19.39-2.08,93.28,93.28,0,0,0-19.37,2.83c-3.18.77-6.32,1.72-9.42,2.76s-6.14,2.29-9.21,3.45c-6.06,2.5-12.06,5.16-17.89,8.17a380.11,380.11,0,0,0-34,19.84c-11.05,7.11-21.93,14.49-33.12,21.42S394.45,176,382.67,181.89s-23.82,11.17-36.09,15.93-24.78,8.86-37.42,12.47c-25.31,7.22-51.09,12.48-76.78,18s-51.1,12.32-76.6,18.7-51.12,12.39-77.06,16.67c-1.62.26-3.24.56-4.87.81l-4.88.68-9.76,1.37-9.8,1-4.91.52-4.91.34-9.84.67-9.85.24-4.93.12L10,269.33Z"/><path class="cls-25" d="M.21,265.81H14.87l4.87-.23,9.76-.46,9.73-.86,4.86-.43,4.85-.59L58.63,262l9.66-1.49c3.21-.49,6.43-1,9.63-1.6,25.65-4.54,51-10.57,76.33-16.65q19-4.56,38.06-8.87l9.56-2,4.77-1,4.8-.94,9.59-1.87,9.63-1.67c25.7-4.25,51.53-7.78,77-13.21,12.73-2.72,25.36-5.9,37.78-9.8s24.65-8.37,36.66-13.38,23.83-10.52,35.3-16.65,22.68-12.79,34-19.27,22.72-12.79,34.54-18.33c5.87-2.83,11.89-5.35,17.95-7.77a163.83,163.83,0,0,1,18.6-6.13c3.16-.84,6.37-1.47,9.58-2.06s6.48-1,9.74-1.18a86.94,86.94,0,0,1,9.82-.16,69.5,69.5,0,0,1,9.76,1c3.25.57,6.39,1.45,9.55,2.23s6.31,1.61,9.46,2.5,6.26,1.86,9.33,3,6.09,2.34,9.11,3.57c12.08,4.93,23.89,10.42,36.06,15q4.56,1.74,9.18,3.29c1.54.52,3.1.95,4.65,1.43l2.33.7,2.37.58a160.75,160.75,0,0,0,19.13,3.59,265,265,0,0,0,38.93,1.83c13-.29,26-1.26,38.92-2.72a762,762,0,0,0,76.93-13.3c6.36-1.41,12.71-2.84,19-4.45s12.62-3.23,19-4.62a131.6,131.6,0,0,1,19.35-2.94,75.67,75.67,0,0,1,38.21,6.76c6,2.61,11.8,5.59,17.5,8.75,11.4,6.33,22.37,13.37,33.7,19.8,22.74,12.64,45.87,24.83,70.42,33.57q4.61,1.63,9.26,3.1c3.09,1,6.25,1.8,9.38,2.7s6.3,1.63,9.45,2.45l9.51,2.2a376.74,376.74,0,0,0,38.54,6.25c25.87,2.79,52.11,3,77.93-.61-25.81,3.66-52.06,3.57-78,.85a375.47,375.47,0,0,1-38.59-6.13l-9.53-2.17c-3.15-.81-6.33-1.55-9.47-2.42s-6.29-1.7-9.4-2.68-6.21-2-9.28-3.08c-24.61-8.72-47.78-20.91-70.55-33.53-11.35-6.42-22.33-13.45-33.71-19.75-5.7-3.15-11.49-6.12-17.45-8.71a75,75,0,0,0-37.91-6.67,132,132,0,0,0-19.25,2.95c-6.35,1.4-12.65,3.05-19,4.64s-12.68,3.05-19,4.47a763.63,763.63,0,0,1-77,13.4c-13,1.47-26,2.47-39,2.77a267.09,267.09,0,0,1-39.07-1.8,161.82,161.82,0,0,1-19.25-3.59l-2.37-.58-2.35-.71c-1.56-.48-3.14-.91-4.69-1.43q-4.63-1.56-9.22-3.29c-12.21-4.61-24-10.09-36.1-15-3-1.24-6-2.41-9.08-3.57s-6.13-2.11-9.25-3-6.28-1.7-9.43-2.5-6.3-1.67-9.47-2.22a67.83,67.83,0,0,0-9.64-1,82.77,82.77,0,0,0-9.71.15c-3.23.2-6.45.65-9.65,1.15s-6.38,1.21-9.51,2a161.26,161.26,0,0,0-18.5,6.07c-6,2.4-12,4.91-17.91,7.73-11.79,5.51-23.18,11.83-34.5,18.27s-22.52,13.1-34,19.23-23.35,11.62-35.38,16.65-24.29,9.48-36.74,13.36-25.11,7.07-37.85,9.78c-25.51,5.41-51.35,8.91-77,13.13l-9.63,1.65L211.55,230l-4.79.93-4.78,1-9.55,2q-19.06,4.26-38.06,8.82c-25.35,6-50.73,12-76.41,16.41-3.2.6-6.42,1.09-9.64,1.57l-9.66,1.46L49,263.38l-4.85.58-4.87.42-9.73.82-9.76.43-4.88.22-4.89,0Z"/><path class="cls-26" d="M.24,262.52l9.71-.21,4.85-.1,4.85-.32,9.68-.65,9.66-1,4.82-.51,4.81-.66,9.62-1.35c3.2-.5,6.38-1.06,9.58-1.59s6.38-1.05,9.56-1.69c25.45-4.73,50.64-10.76,75.9-16.47,12.62-2.89,25.3-5.55,38-8.06l9.56-1.73,4.78-.86,4.8-.74,9.6-1.49,9.65-1.18c25.73-2.95,51.58-4.73,77.21-8.38,12.81-1.83,25.55-4.11,38.13-7.14s25-6.65,37.25-10.83,24.32-8.88,36.09-14.23,23.3-11.25,34.87-17.07,23.17-11.6,35.07-16.75c5.93-2.62,12-5,18-7.29a186.78,186.78,0,0,1,18.53-6c3.13-.84,6.31-1.5,9.5-2.12s6.41-1.07,9.65-1.39a95.35,95.35,0,0,1,19.48-.14c3.25.32,6.44.91,9.63,1.37l9.61,1.42c3.2.5,6.4,1,9.58,1.74s6.32,1.45,9.47,2.22c12.58,3.09,25,6.61,37.66,9.43,3.16.7,6.32,1.38,9.49,2,1.59.33,3.18.55,4.77.83s3.19.54,4.79.72c6.39.91,12.85,1.31,19.3,1.62,25.86.92,51.72-1.58,77.33-5.11,12.82-1.78,25.59-3.91,38.33-6.22l38.16-7.19,9.54-1.79c3.18-.62,6.34-1.27,9.51-1.93,6.34-1.31,12.69-2.63,19.09-3.67,12.75-2.15,26-2.88,38.73-.09a82.44,82.44,0,0,1,18.31,6.55c5.85,2.8,11.53,5.94,17.12,9.23,11.16,6.6,21.91,13.83,33,20.53,22.23,13.21,44.88,26,69,35.33,3,1.17,6,2.27,9.1,3.34s6.17,2,9.25,2.93,6.22,1.78,9.33,2.68,6.26,1.61,9.4,2.41a350.27,350.27,0,0,0,38.18,6.91c25.67,3.15,51.8,3.5,77.42-.39-25.61,4-51.75,3.71-77.45.64a349.06,349.06,0,0,1-38.24-6.81c-3.14-.79-6.28-1.55-9.42-2.38s-6.25-1.69-9.34-2.65-6.21-1.85-9.28-2.91-6.11-2.15-9.13-3.32c-24.21-9.33-46.9-22.09-69.16-35.28-11.1-6.7-21.85-13.92-33-20.49-5.57-3.28-11.24-6.4-17.08-9.18a80.78,80.78,0,0,0-18.18-6.49c-12.64-2.75-25.76-2-38.47.14-6.38,1-12.71,2.37-19.05,3.69-3.17.66-6.34,1.31-9.52,1.93l-9.54,1.81-38.17,7.23c-12.73,2.32-25.51,4.47-38.34,6.27-25.64,3.55-51.54,6.09-77.48,5.2-6.48-.31-13-.7-19.39-1.61-1.62-.18-3.22-.44-4.82-.72s-3.21-.5-4.8-.83c-3.18-.61-6.35-1.28-9.51-2-12.66-2.82-25.14-6.32-37.7-9.4q-4.71-1.16-9.44-2.22c-3.15-.7-6.33-1.24-9.52-1.75l-9.6-1.43c-3.21-.46-6.4-1-9.59-1.37a94.22,94.22,0,0,0-19.29.12c-3.21.31-6.39.81-9.57,1.37s-6.33,1.27-9.45,2.1a188.18,188.18,0,0,0-18.44,5.9c-6.05,2.28-12.07,4.65-18,7.26-11.88,5.13-23.48,10.89-35.05,16.69S430.48,178.69,418.67,184s-23.91,10-36.17,14.22-24.72,7.8-37.33,10.81-25.37,5.29-38.2,7.11c-25.66,3.62-51.52,5.38-77.24,8.29l-9.63,1.18-9.59,1.47-4.8.74-4.77.85-9.56,1.72q-19,3.74-38,8c-25.27,5.64-50.49,11.58-76,16.24-3.18.63-6.37,1.14-9.57,1.66s-6.38,1.07-9.58,1.56l-9.63,1.32-4.81.64-4.83.5-9.66,1-9.69.62-4.85.3-4.85.09Z"/><path class="cls-27" d="M.27,259.24l9.67-.42,4.84-.21,4.82-.41,9.64-.84,9.61-1.19,4.8-.59,4.79-.73L58,253.37l9.53-1.71c3.18-.56,6.36-1.12,9.52-1.78,25.34-4.95,50.44-11,75.7-16.35,12.62-2.74,25.32-5.1,38.06-7.24l9.58-1.41c1.6-.23,3.19-.49,4.79-.69l4.82-.54c3.21-.35,6.41-.77,9.63-1.07l9.66-.71c25.78-1.59,51.62-1.64,77.36-3.53,12.87-.93,25.7-2.35,38.42-4.51s25.32-5,37.77-8.32,24.77-7.24,36.82-11.83,23.89-9.73,35.72-14.9S479,168.39,491,163.62c6-2.41,12.05-4.67,18.14-6.83,3.06-1,6.11-2.12,9.19-3.09s6.2-1.87,9.33-2.67c12.52-3.22,25.45-5.2,38.43-4.82,3.25.11,6.46.39,9.68.53l9.67.39c3.22.13,6.46.28,9.68.55l9.65.89c12.85,1.26,25.68,2.75,38.53,3.77,6.43.51,12.87.92,19.31,1.07s12.88,0,19.32-.3c25.76-1.32,51.35-5.05,76.8-9.26,12.73-2.11,25.43-4.44,38.14-6.7l38.16-6.65c6.36-1.12,12.71-2.23,19.09-3.25s12.75-2.06,19.17-2.78a139.41,139.41,0,0,1,19.38-1,89.73,89.73,0,0,1,19.22,2.6A79.85,79.85,0,0,1,930,133.17c5.76,3,11.32,6.26,16.8,9.67,11,6.86,21.52,14.31,32.35,21.32,21.77,13.83,44,27.19,67.77,37.24,3,1.26,6,2.45,9,3.61s6.08,2.14,9.13,3.18,6.16,1.94,9.23,2.92,6.21,1.75,9.31,2.63a319.86,319.86,0,0,0,37.92,7.66c25.54,3.52,51.64,4.06,77.14-.15-25.49,4.29-51.61,3.84-77.17.39a322.46,322.46,0,0,1-38-7.54c-3.11-.87-6.24-1.69-9.33-2.61s-6.2-1.83-9.25-2.89-6.13-2-9.16-3.16-6-2.34-9-3.59c-23.86-10-46.09-23.39-67.89-37.21-10.86-7-21.42-14.44-32.37-21.27-5.47-3.4-11-6.69-16.76-9.62a79.59,79.59,0,0,0-17.92-7,89,89,0,0,0-19.08-2.55,138.06,138.06,0,0,0-19.28,1c-6.4.73-12.77,1.75-19.14,2.8s-12.73,2.15-19.08,3.27L797,137.93c-12.71,2.27-25.4,4.62-38.14,6.74-25.46,4.25-51.07,8-76.89,9.35-6.46.29-12.93.46-19.39.33s-12.92-.55-19.36-1.06c-12.88-1-25.71-2.48-38.56-3.73l-9.63-.9c-3.2-.27-6.42-.42-9.64-.56l-9.68-.4c-3.23-.14-6.46-.42-9.66-.54-12.85-.39-25.71,1.56-38.17,4.76-3.12.78-6.21,1.69-9.28,2.64s-6.12,2-9.17,3.08q-9.12,3.21-18.11,6.79c-12,4.75-23.82,9.94-35.65,15.11S432,189.86,419.94,194.42,395.5,202.85,383,206.23s-25.1,6.15-37.85,8.3-25.6,3.55-38.48,4.47c-25.77,1.86-51.62,1.89-77.37,3.45l-9.65.7c-3.21.29-6.41.7-9.62,1l-4.81.54c-1.6.19-3.19.46-4.79.68l-9.57,1.4c-12.73,2.12-25.42,4.48-38,7.18-25.27,5.27-50.4,11.25-75.76,16.12-3.16.64-6.34,1.19-9.52,1.75L58,253.55,48.46,255l-4.79.71-4.8.58-9.62,1.16-9.65.81-4.82.4-4.84.19Z"/><path class="cls-28" d="M.29,256l9.67-.63,4.83-.32,4.81-.52,9.62-1.05,9.59-1.37,4.79-.69,4.77-.82,9.54-1.65,9.5-1.85c3.17-.61,6.34-1.22,9.49-1.91,25.28-5.26,50.36-11.43,75.7-16.42,12.66-2.58,25.42-4.63,38.22-6.32,6.43-.67,12.83-1.52,19.29-1.83l4.84-.32,2.41-.16c.81,0,1.62,0,2.43-.06l9.69-.15c25.83.1,51.62,1.64,77.43,1.4,12.91-.09,25.8-.67,38.64-2s25.59-3.28,38.23-5.83q9.48-1.92,18.87-4.28c3.13-.78,6.24-1.61,9.35-2.46s6.21-1.76,9.28-2.74c12.33-3.78,24.45-8.22,36.54-12.74s24.13-9.2,36.27-13.6q9.11-3.31,18.3-6.38c3.07-1,6.13-2,9.24-2.95s6.23-1.73,9.38-2.48a291.81,291.81,0,0,1,38.3-6c6.43-.68,12.9-1.07,19.35-1.3l19.35-.72c12.9-.47,25.8-.91,38.68-1.65,6.44-.37,12.89-.76,19.3-1.34s12.83-1.32,19.22-2.21c12.78-1.73,25.5-3.92,38.2-6.23s25.36-4.8,38-7.29c25.34-5,50.67-10,76.24-13.76,6.39-.94,12.79-1.78,19.2-2.57s12.83-1.53,19.28-2c12.87-.84,26-.49,38.53,3.12a78.6,78.6,0,0,1,17.89,7.48c5.65,3.13,11.16,6.54,16.54,10.1,10.79,7.13,21.18,14.81,31.8,22.14,21.33,14.5,43.12,28.54,66.57,39.35,5.87,2.69,11.81,5.19,17.89,7.35s12.2,4.21,18.38,6.05a292,292,0,0,0,37.75,8.46,266,266,0,0,0,38.54,3.26,207.44,207.44,0,0,0,38.54-3.11,207.41,207.41,0,0,1-38.54,3.23,266.44,266.44,0,0,1-38.58-3.13,296.25,296.25,0,0,1-37.81-8.35c-6.2-1.83-12.36-3.78-18.42-6s-12.07-4.63-18-7.31c-23.52-10.79-45.34-24.83-66.7-39.31-10.64-7.33-21-15-31.81-22.1-5.38-3.55-10.87-6.94-16.51-10.06a77.57,77.57,0,0,0-17.76-7.4c-12.4-3.56-25.48-3.91-38.3-3-6.43.44-12.84,1.18-19.24,2s-12.8,1.64-19.18,2.59C812.25,129.87,786.93,135,761.6,140c-12.66,2.5-25.33,5-38,7.33s-25.43,4.54-38.24,6.28c-6.39.9-12.82,1.62-19.25,2.23s-12.88,1-19.33,1.37c-12.9.75-25.8,1.22-38.7,1.69s-25.83.6-38.64,2a292.36,292.36,0,0,0-38.19,5.91q-4.69,1.11-9.34,2.46c-3.08.91-6.14,1.92-9.21,2.93q-9.18,3-18.28,6.35c-12.14,4.38-24.18,9-36.28,13.55s-24.24,9-36.6,12.73c-3.08,1-6.2,1.83-9.3,2.73s-6.24,1.67-9.37,2.46q-9.4,2.34-18.91,4.26c-12.67,2.55-25.45,4.52-38.31,5.8s-25.79,1.86-38.7,1.93c-25.84.21-51.64-1.35-77.44-1.48l-9.67.14c-.81,0-1.62,0-2.42.06l-2.41.16-4.83.31c-6.45.3-12.85,1.14-19.26,1.81-12.79,1.66-25.54,3.71-38.19,6.26-25.35,4.91-50.45,11-75.75,16.18-3.16.67-6.33,1.28-9.5,1.88l-9.51,1.82-9.55,1.62-4.77.8-4.8.68-9.59,1.34-9.63,1-4.81.5-4.83.31Z"/><path class="cls-29" d="M.32,252.68l9.68-.84,4.83-.43,4.82-.61,9.63-1.23L38.87,248l4.8-.77,4.77-.88L58,244.61c6.34-1.31,12.69-2.54,19-3.94,25.31-5.44,50.49-11.58,76-16.19,6.36-1.24,12.77-2.15,19.17-3.15,1.6-.27,3.21-.46,4.82-.65l4.82-.58c3.22-.37,6.43-.84,9.66-1l9.69-.77c1.62-.16,3.24-.15,4.86-.22l4.86-.15,4.85-.15c1.62-.06,3.24,0,4.86.07l9.72.25c25.88,1.4,51.6,4.7,77.44,6.27a379.82,379.82,0,0,0,77.44-2.84,384.8,384.8,0,0,0,38.12-7.17c12.58-3,25-6.73,37.33-10.63s24.61-8.05,36.92-12.09c6.15-2,12.31-4,18.49-5.95s12.39-3.82,18.67-5.45a266.3,266.3,0,0,1,38.2-7.23c6.44-.64,12.82-1.64,19.2-2.71s12.8-2,19.18-3.08q19.19-3.06,38.27-6.6c12.74-2.36,25.44-4.83,38-7.73,25.24-5.77,50.32-12.25,75.57-18.06,12.62-2.91,25.28-5.68,38-8.14s25.5-4.63,38.35-6.29q9.65-1.24,19.32-2.09c6.46-.58,12.92-1,19.41-1.21a153.89,153.89,0,0,1,19.44.62,103.37,103.37,0,0,1,19.09,3.77,81.75,81.75,0,0,1,17.84,7.77c5.59,3.29,11,6.87,16.33,10.56,10.65,7.39,20.89,15.34,31.32,23,20.93,15.2,42.31,30,65.47,41.6A252.65,252.65,0,0,0,1083.69,219a275.75,275.75,0,0,0,37.65,9.35,246.38,246.38,0,0,0,38.61,3.73,188.27,188.27,0,0,0,38.64-3.24,188.25,188.25,0,0,1-38.64,3.36,246.85,246.85,0,0,1-38.65-3.61,276.34,276.34,0,0,1-37.72-9.24,253.42,253.42,0,0,1-36-14.5,339.62,339.62,0,0,1-33.65-19.44c-10.87-7.07-21.49-14.49-31.95-22.13s-20.7-15.6-31.34-23c-5.32-3.68-10.72-7.24-16.29-10.52a80.66,80.66,0,0,0-17.71-7.68,102,102,0,0,0-19-3.73,154.22,154.22,0,0,0-19.35-.59c-6.46.17-12.92.64-19.36,1.23s-12.88,1.27-19.29,2.1q-19.26,2.52-38.3,6.32c-12.71,2.48-25.35,5.26-38,8.19-25.23,5.82-50.3,12.34-75.55,18.13-12.63,2.92-25.35,5.41-38.08,7.78s-25.5,4.6-38.29,6.64c-6.4,1-12.79,2-19.18,3.06s-12.8,2.06-19.26,2.7A265.18,265.18,0,0,0,535,181.12c-6.26,1.61-12.46,3.45-18.63,5.41s-12.34,3.92-18.49,5.93c-12.31,4-24.58,8.15-36.94,12s-24.79,7.57-37.39,10.61a387,387,0,0,1-38.21,7.14A380.5,380.5,0,0,1,307.71,225c-25.87-1.6-51.58-4.93-77.43-6.35l-9.69-.26c-1.62,0-3.24-.14-4.85-.07l-4.85.14-4.85.15c-1.61.06-3.23.05-4.84.21l-9.68.76c-3.23.19-6.43.66-9.65,1l-4.82.57c-1.6.19-3.21.37-4.81.64-6.39,1-12.8,1.91-19.16,3.12-25.49,4.52-50.69,10.59-76,15.95-6.33,1.38-12.69,2.59-19,3.88l-9.55,1.74-4.78.88-4.8.75-9.6,1.5-9.63,1.2-4.82.59-4.84.42Z"/><path class="cls-30" d="M.35,249.4c26-2.35,51.52-7.67,76.91-13.4s50.73-11.91,76.46-16.14,51.93-6.34,77.88-3.29,51.5,7.93,77.33,11.16a383.79,383.79,0,0,0,38.9,3,387.36,387.36,0,0,0,39-1,387.36,387.36,0,0,0,38.71-4.91c12.8-2.32,25.49-5.25,38.08-8.56s25.09-6.92,37.58-10.61L519.92,200q9.35-2.82,18.79-5.37c12.59-3.36,25.3-6.32,38.12-8.7,6.38-1.21,12.69-2.77,19-4.41s12.6-3.3,18.87-5c12.56-3.43,25-7.14,37.49-11s24.88-7.68,37.27-11.69c24.78-8,49.55-16.12,74.71-22.92,12.58-3.4,25.23-6.57,38-9.19,12.73-2.78,25.61-4.88,38.56-6.4a322,322,0,0,1,39-2.28c13,.1,26.16,1.56,38.63,5.54,3.09,1,6.16,2.17,9.15,3.49a83.36,83.36,0,0,1,8.71,4.5c5.59,3.39,10.9,7.17,16.18,11,10.53,7.69,20.66,15.89,30.91,23.92,20.55,16,41.55,31.54,64.42,44a236.24,236.24,0,0,0,35.63,15.83A267.78,267.78,0,0,0,1121,231.72a230.61,230.61,0,0,0,38.77,4.28,171.58,171.58,0,0,0,38.83-3.35,171.62,171.62,0,0,1-38.83,3.47,230.12,230.12,0,0,1-38.82-4.16,267.32,267.32,0,0,1-37.69-10.22A237.52,237.52,0,0,1,1047.51,206a353.34,353.34,0,0,1-33.16-20.7C1003.67,177.81,993.23,170,983,162s-20.4-16.21-30.92-23.88c-5.27-3.8-10.59-7.58-16.14-10.94a85,85,0,0,0-8.64-4.46c-3-1.3-6-2.42-9.1-3.45-12.39-3.94-25.45-5.38-38.43-5.47a322.8,322.8,0,0,0-38.93,2.32c-12.92,1.53-25.77,3.65-38.48,6.44-12.75,2.63-25.38,5.8-37.94,9.21-25.13,6.82-49.87,15-74.65,23-12.39,4-24.83,7.9-37.27,11.74s-24.94,7.56-37.51,11c-6.28,1.72-12.59,3.34-18.88,5s-12.65,3.2-19.06,4.41c-12.8,2.37-25.48,5.3-38.06,8.65q-9.44,2.5-18.78,5.33l-18.72,5.57c-12.5,3.69-25,7.32-37.63,10.59s-25.31,6.21-38.14,8.52a389.25,389.25,0,0,1-38.79,4.89,388.8,388.8,0,0,1-39.07,1,381.9,381.9,0,0,1-39-3.05c-25.86-3.26-51.45-8.28-77.32-11.24s-52.08-1-77.74,3.19-51,10.26-76.47,15.9S26.32,247.13.35,249.4Z"/><path class="cls-31" d="M.37,246.12c52.3-6,102.39-23.31,154.44-30.83a298.32,298.32,0,0,1,39.26-3.21c6.57,0,13.15.17,19.7.71s13.08,1.42,19.54,2.61c25.89,4.52,51.33,11.2,77.13,16,51.56,10,105.06,8.62,156.31-2.55,12.84-2.68,25.59-5.83,38.26-9.22,6.34-1.69,12.66-3.46,19-5.26l19-5.27,38-10.53c6.3-1.78,12.53-3.84,18.72-6s12.36-4.42,18.49-6.75c24.53-9.33,48.57-19.93,72.79-30.07,12.1-5.1,24.24-10.13,36.48-14.89s24.61-9.22,37.12-13.24,25.16-7.62,38-10.55c6.42-1.41,12.82-2.91,19.31-4s13-2.07,19.51-2.79a265.69,265.69,0,0,1,39.38-1.53c13.12.52,26.29,2.39,38.79,6.62,1.54.57,3.11,1.06,4.63,1.71l2.29.92c.76.31,1.51.67,2.26,1a82.75,82.75,0,0,1,8.77,4.55,96,96,0,0,1,8.21,5.48c2.67,1.93,5.29,3.91,7.9,5.9,10.42,8,20.45,16.5,30.55,24.89,20.22,16.72,40.81,33.17,63.39,46.59,5.65,3.34,11.4,6.51,17.29,9.38s11.92,5.5,18,7.84A255.73,255.73,0,0,0,1120.46,235a212.61,212.61,0,0,0,39,4.89,158.18,158.18,0,0,0,39.12-3.47,158.26,158.26,0,0,1-39.13,3.59,211.38,211.38,0,0,1-39-4.78A254.28,254.28,0,0,1,1082.69,224c-6.15-2.32-12.16-5-18.1-7.79s-11.69-6-17.36-9.35a359.7,359.7,0,0,1-32.65-22.05c-10.51-7.9-20.75-16.12-30.86-24.51s-20.15-16.86-30.56-24.85c-2.61-2-5.23-4-7.89-5.87a96.66,96.66,0,0,0-8.17-5.45,81.48,81.48,0,0,0-8.71-4.5c-.75-.33-1.49-.68-2.24-1l-2.28-.91c-1.51-.64-3.07-1.13-4.61-1.69-12.41-4.19-25.52-6-38.6-6.54a265.39,265.39,0,0,0-39.26,1.56q-9.78,1.1-19.47,2.81c-6.47,1.08-12.85,2.59-19.26,4-12.78,2.94-25.41,6.53-37.89,10.57s-24.83,8.51-37.06,13.26-24.35,9.81-36.44,14.92c-24.21,10.17-48.23,20.81-72.8,30.16q-9.21,3.49-18.52,6.74c-6.2,2.16-12.45,4.22-18.78,6l-38,10.49-19,5.25c-6.32,1.79-12.64,3.56-19,5.25-12.69,3.37-25.46,6.51-38.32,9.18-51.35,11.14-105,12.44-156.61,2.39-25.82-4.85-51.24-11.56-77.1-16.1-6.46-1.19-13-2-19.48-2.63s-13.1-.74-19.65-.72a300.93,300.93,0,0,0-39.2,3.15C102.87,223.12,52.68,240.3.37,246.12Z"/><path class="cls-32" d="M.4,242.84c52.64-7.24,103-25.58,155.85-32.06,6.59-.76,13.2-1.41,19.83-1.7l2.49-.13,2.49-.06,5-.11c3.32,0,6.64,0,10,.18a188.33,188.33,0,0,1,39.36,5.69c25.83,6.17,51.08,14.43,76.82,20.81a378.33,378.33,0,0,0,78.57,11.2,399.53,399.53,0,0,0,79.22-5q19.62-3.17,39-7.87c12.89-3.1,25.65-6.71,38.36-10.51s25.32-7.88,37.78-12.38,24.53-10,36.5-15.72c23.94-11.4,47.14-24.29,70.67-36.57S739.6,134.48,764.41,125a375,375,0,0,1,37.89-12.25l2.4-.65,2.43-.56,4.85-1.13c3.24-.73,6.46-1.53,9.73-2.14,6.52-1.25,13.09-2.27,19.69-3a227,227,0,0,1,39.79-1.06,145.15,145.15,0,0,1,39,7.59,106.74,106.74,0,0,1,18.08,8.4,92,92,0,0,1,8.3,5.53c2.65,2,5.24,4.09,7.83,6.17,10.32,8.36,20.27,17.15,30.23,25.91,19.92,17.49,40.09,34.87,62.4,49.25a231.85,231.85,0,0,0,72.72,31.22l2.41.6,2.44.51,4.86,1c3.26.64,6.54,1.11,9.8,1.68,3.3.38,6.58.85,9.88,1.15l5,.38,2.48.19,2.48.07a146.92,146.92,0,0,0,39.5-3.57,147.38,147.38,0,0,1-39.5,3.7l-2.49-.07-2.48-.18-5-.36c-3.31-.3-6.6-.75-9.89-1.13-3.27-.56-6.56-1-9.82-1.65l-4.87-1-2.44-.5-2.42-.59a232.39,232.39,0,0,1-72.93-31c-22.37-14.37-42.57-31.75-62.51-49.23-10-8.75-19.93-17.52-30.24-25.86-2.59-2.07-5.18-4.14-7.82-6.14a90.86,90.86,0,0,0-8.25-5.49,105.73,105.73,0,0,0-18-8.32,143.61,143.61,0,0,0-38.85-7.51,224.57,224.57,0,0,0-39.66,1.1c-6.58.74-13.13,1.76-19.64,3-3.25.61-6.47,1.41-9.69,2.15l-4.84,1.12-2.42.57-2.4.64a374.18,374.18,0,0,0-37.79,12.27c-24.76,9.51-48.56,21.31-72,33.63S646,184.6,622,196c-12,5.7-24.12,11.13-36.6,15.71s-25.14,8.54-37.85,12.37-25.5,7.38-38.41,10.48-25.93,5.74-39,7.84a399.58,399.58,0,0,1-79.38,5A379.48,379.48,0,0,1,312,236.11c-25.77-6.42-51-14.71-76.8-20.89A187.25,187.25,0,0,0,196,209.5c-3.3-.19-6.62-.15-9.93-.19l-5,.1-2.48.06-2.48.13c-6.62.27-13.22.93-19.81,1.66C103.55,217.57,53.06,235.76.4,242.84Z"/><path class="cls-33" d="M.43,239.56C27,235.3,52.93,228.27,79,221.68s52.23-12.87,79-15.42c6.69-.65,13.41-.95,20.13-1.06s13.44.22,20.14.82a179,179,0,0,1,19.93,3.07c6.56,1.46,13,3.27,19.46,5.24,25.73,7.78,50.74,17.69,76.4,25.55,3.21,1,6.43,1.94,9.66,2.84s6.49,1.67,9.74,2.51l9.76,2.44,9.86,2,4.94,1c1.65.31,3.28.71,4.94.92l9.95,1.48,5,.74c.83.12,1.66.27,2.49.35l2.5.25,10,1a393.66,393.66,0,0,0,80.34-.9,397.24,397.24,0,0,0,78.45-17.24l9.54-3.2c1.6-.5,3.14-1.17,4.71-1.76l4.69-1.82L580,226.8l9.18-4.1,4.6-2c1.52-.69,3.07-1.34,4.55-2.13l9-4.55c6-2.93,11.84-6.31,17.71-9.55,23.33-13.28,45.81-28,68.59-42.23q17-10.75,34.56-20.74c5.9-3.22,11.73-6.57,17.75-9.55l4.49-2.3c1.49-.77,3-1.55,4.51-2.24l9.14-4.27a302,302,0,0,1,37.69-14.26c6.39-2.12,13-3.55,19.49-5.18a185.07,185.07,0,0,1,19.87-3.47,196.41,196.41,0,0,1,40.27-.92,160.22,160.22,0,0,1,20,2.89,133.3,133.3,0,0,1,19.39,5.57,112.51,112.51,0,0,1,18.22,8.65,105.7,105.7,0,0,1,16.25,11.95c10.21,8.74,20.09,17.85,29.93,27,19.68,18.26,39.41,36.6,61.42,52,1.36,1,2.75,1.93,4.15,2.85l4.19,2.79c2.81,1.84,5.7,3.53,8.54,5.31,1.45.86,2.92,1.65,4.38,2.48s2.9,1.69,4.41,2.42l4.48,2.29,2.25,1.13,2.28,1A228.48,228.48,0,0,0,1119,241.39a187.71,187.71,0,0,0,39.68,6.33,136.34,136.34,0,0,0,39.95-3.66,136.38,136.38,0,0,1-40,3.78,187.65,187.65,0,0,1-39.74-6.21A228.37,228.37,0,0,1,1081,228l-2.3-1.05-2.25-1.13-4.5-2.27c-1.51-.74-2.94-1.62-4.42-2.42s-3-1.62-4.39-2.47c-2.86-1.77-5.76-3.46-8.58-5.3l-4.2-2.78c-1.41-.91-2.81-1.85-4.17-2.83-22.07-15.41-41.84-33.75-61.53-52-9.86-9.12-19.74-18.22-30-26.94a105.91,105.91,0,0,0-16.16-11.87,113.36,113.36,0,0,0-18.13-8.58,132,132,0,0,0-19.3-5.52A162.41,162.41,0,0,0,881.27,100a196.4,196.4,0,0,0-40.12,1,184.12,184.12,0,0,0-19.79,3.49c-6.5,1.62-13.06,3-19.43,5.18a301.08,301.08,0,0,0-37.58,14.26l-9.11,4.27c-1.53.69-3,1.47-4.5,2.24l-4.48,2.3c-6,3-11.82,6.33-17.71,9.55q-17.46,10-34.5,20.76c-22.76,14.24-45.23,29-68.59,42.32-5.88,3.24-11.7,6.62-17.75,9.55l-9,4.55c-1.48.79-3,1.44-4.57,2.13l-4.61,2-9.21,4.1-9.39,3.66-4.7,1.82c-1.58.59-3.12,1.27-4.73,1.76l-9.56,3.2a398.37,398.37,0,0,1-78.65,17.2,394.41,394.41,0,0,1-80.49.81l-10-1-2.51-.25c-.84-.08-1.66-.24-2.49-.35l-5-.75-10-1.5c-1.67-.21-3.3-.61-4.95-.92l-4.94-1-9.88-2-9.78-2.46c-3.25-.85-6.53-1.58-9.76-2.52s-6.45-1.87-9.66-2.86c-25.69-7.9-50.69-17.83-76.38-25.63-6.41-2-12.87-3.78-19.41-5.24a175.48,175.48,0,0,0-19.86-3.08c-6.68-.61-13.38-.87-20.09-.85s-13.41.41-20.08,1c-26.75,2.46-53,8.67-79,15.17S27,235.38.43,239.56Z"/></g></g></svg>